<svg width="1568" height="873" viewBox="0 0 1568 873" fill="none" xmlns="http://www.w3.org/2000/svg">
<g clip-path="url(#clip0)">
<rect width="1568" height="873" fill="white"/>
<path d="M-7 563C661 202.5 1060.93 415.5 1468.43 -2.28121V-115.352L-490.566 -124.5L-476.132 631.5L-7 563Z" fill="url(#paint0_linear)"/>
<g filter="url(#filter0_d)">
<path d="M1051.21 392.056C1049.68 393.615 1049.09 395.807 1048.43 397.867C1043.12 414.472 1030.04 427.829 1015.15 437.369C1008.84 441.41 1001.16 446.829 1002.54 454.075C1003.28 457.966 1006.54 460.83 1008.97 463.999C1014.05 470.635 1015.69 479.655 1013.27 487.599C1010.52 496.638 1002.82 505.072 1005.2 514.211C1006.67 519.837 1011.66 523.841 1016.46 527.282C1023.94 532.646 1031.66 537.672 1039.62 542.358C1044.96 545.5 1050.63 548.556 1056.85 548.955C1062.33 549.306 1067.69 547.56 1072.89 545.837C1077.43 544.33 1082.09 542.762 1085.76 539.743C1088.15 537.771 1090.06 535.228 1092.72 533.615C1098.96 529.827 1106.99 532.228 1114.15 533.85C1131.05 537.656 1149.14 536.266 1165.22 529.926C1189.89 520.198 1208.69 499.77 1232.82 488.809C1243.2 484.095 1254.49 481.17 1264.09 475.099C1269.51 471.642 1274.16 467.418 1277.84 462.619C1285.1 453.217 1289.03 441.229 1287.89 429.495C1286.76 417.761 1280.4 406.453 1270.42 399.829C1259.74 392.738 1246.24 391.414 1234.08 387.157C1221.53 382.76 1210.36 375.202 1197.93 370.484C1187.87 366.676 1176.92 364.807 1165.88 365.014C1154.85 365.22 1144.01 367.497 1134.16 371.677C1120.63 377.42 1106.91 390.818 1091.84 391.836C1081.1 392.539 1059.6 383.519 1051.21 392.056Z" fill="url(#paint1_linear)"/>
<g clip-path="url(#clip1)">
<path d="M1303 468.338H1223.84V468.944H1303V468.338Z" fill="#3F3D56"/>
<path d="M1241.49 462.891L1243.79 474.107L1248.72 475.32L1247.4 461.982L1241.49 462.891Z" fill="#A0616A"/>
<path d="M1269.08 462.891L1271.38 474.107L1276.31 475.32L1275 461.982L1269.08 462.891Z" fill="#A0616A"/>
<path d="M1246.75 471.985C1246.75 471.985 1241.49 471.682 1241.49 473.198C1241.49 474.714 1238.86 479.867 1238.86 479.867C1238.86 479.867 1236.89 485.93 1242.15 485.324C1247.41 484.717 1250.69 479.261 1250.69 479.261L1249.38 473.501L1246.75 471.985Z" fill="#2F2E41"/>
<path d="M1273.07 472.544C1273.07 472.544 1269.57 470.464 1269.82 471.851C1270.07 473.238 1270.32 476.935 1272.07 477.166C1273.82 477.397 1279.08 478.784 1279.33 479.246C1279.58 479.708 1285.59 481.557 1285.59 478.553C1285.59 475.549 1281.84 473.238 1281.84 473.238L1277.58 470.233C1277.58 470.233 1274.82 470.002 1274.32 471.62C1273.82 473.238 1273.07 472.544 1273.07 472.544Z" fill="#2F2E41"/>
<path d="M1239.77 399.07C1239.77 399.07 1234.19 391.491 1232.22 393.916C1230.24 396.342 1237.14 400.889 1237.14 400.889L1239.77 399.07Z" fill="#A0616A"/>
<path d="M1241.74 406.346C1241.41 406.042 1235.5 400.889 1235.5 400.889L1239.77 398.161L1244.7 402.708L1241.74 406.346Z" fill="#575A89"/>
<path d="M1242.56 382.852C1242.56 382.852 1238.29 383.155 1238.62 386.49C1238.95 389.824 1241.74 400.889 1241.74 400.889L1243.38 403.92C1243.38 403.92 1249.46 386.49 1242.56 382.852Z" fill="#575A89"/>
<path d="M1242.89 372.242L1244.07 375.879H1258.89L1259.31 371.939L1260.59 375.879H1262.5L1262.93 371.939L1264.21 375.879H1266.21L1264.33 371.691C1263.45 369.689 1262.79 367.613 1262.34 365.494C1261.75 362.862 1260.2 360.498 1257.94 358.8C1255.69 357.102 1252.86 356.175 1249.95 356.175V356.175C1249.78 356.175 1249.6 356.178 1249.43 356.185C1241.13 356.495 1235.81 364.52 1239 371.603L1240.92 375.879H1242.5L1242.89 372.242Z" fill="#2F2E41"/>
<path d="M1242.73 403.92C1242.73 403.92 1232.54 411.802 1235.5 422.412C1238.46 433.022 1239.44 466.368 1239.44 466.368L1249.62 465.458V423.624L1263.75 448.482L1266.05 466.368L1277.54 464.549L1272.29 442.723L1262.18 414.901L1261.12 406.874L1242.73 403.92Z" fill="#2F2E41"/>
<path d="M1249.79 372.545C1253.6 372.545 1256.69 369.695 1256.69 366.179C1256.69 362.663 1253.6 359.813 1249.79 359.813C1245.98 359.813 1242.89 362.663 1242.89 366.179C1242.89 369.695 1245.98 372.545 1249.79 372.545Z" fill="#A0616A"/>
<path d="M1245.68 370.574C1245.68 370.574 1248.64 380.578 1247 381.791C1245.35 383.003 1258.49 377.85 1258.49 377.85C1258.49 377.85 1252.91 372.09 1253.57 369.665L1245.68 370.574Z" fill="#A0616A"/>
<path d="M1257.84 375.728C1257.84 375.728 1252.58 379.903 1247.49 380.241C1247.49 380.241 1240.76 383.61 1241.08 383.913C1241.41 384.216 1242.4 388.46 1242.4 388.46C1242.4 388.46 1244.04 390.801 1244.04 395.735C1244.04 396.342 1241.74 404.83 1241.74 404.83L1261.12 407.255C1261.12 407.255 1266.38 391.491 1266.7 386.035C1267.03 380.578 1269 374.819 1266.05 374.515C1263.09 374.212 1257.84 375.728 1257.84 375.728Z" fill="#575A89"/>
<path d="M1265.39 375.728C1265.39 375.728 1267.69 373.909 1269 378.153C1270.32 382.397 1275.57 395.735 1274.26 398.464C1272.95 401.192 1265.06 413.318 1265.06 413.318L1261.12 410.892L1269 397.251L1264.41 387.55L1265.39 375.728Z" fill="#575A89"/>
<path d="M1262.76 410.589C1262.76 410.589 1252.58 416.349 1255.86 417.562C1259.15 418.774 1264.73 412.408 1264.73 412.408L1262.76 410.589Z" fill="#A0616A"/>
<path d="M1242.23 358.904V365.27H1244.86L1245.85 362.541L1246.09 365.27H1253.4L1254.39 362.541L1254.63 365.27H1257.67V358.904H1242.23Z" fill="#2F2E41"/>
<path opacity="0.2" d="M1242.23 388.915C1242.23 388.915 1241.58 394.977 1242.56 396.19C1243.55 397.403 1242.23 388.915 1242.23 388.915Z" fill="black"/>
<path d="M1185.41 494.712H1046.14V495.318H1185.41V494.712Z" fill="#3F3D56"/>
<path d="M1176.94 448.667L1136.53 485.96C1130.35 491.661 1121.97 494.863 1113.24 494.863C1104.5 494.863 1096.12 491.661 1089.95 485.96C1089.4 485.457 1088.88 484.938 1088.38 484.405C1087.55 483.538 1086.79 482.627 1086.08 481.676C1083.49 478.217 1081.72 474.291 1080.88 470.157C1080.69 469.257 1080.55 468.347 1080.45 467.429C1080.35 466.45 1080.3 465.461 1080.3 464.464C1080.3 461.675 1080.71 458.899 1081.52 456.212C1081.8 455.288 1082.13 454.378 1082.5 453.484C1084.16 449.538 1086.7 445.956 1089.95 442.968L1107.58 426.698C1108.5 425.846 1109.75 425.367 1111.06 425.367C1112.37 425.367 1113.62 425.846 1114.54 426.698C1115.47 427.551 1115.98 428.707 1115.98 429.913C1115.98 431.119 1115.47 432.275 1114.54 433.128L1096.91 449.398C1095.58 450.625 1094.42 451.997 1093.44 453.484C1091.28 456.798 1090.14 460.595 1090.15 464.464C1090.15 465.456 1090.23 466.446 1090.37 467.429C1090.51 468.35 1090.71 469.261 1090.98 470.157C1092.06 473.748 1094.14 477.016 1097.01 479.634C1099.88 482.253 1103.45 484.13 1107.35 485.078C1111.26 486.027 1115.36 486.014 1119.26 485.04C1123.16 484.067 1126.71 482.167 1129.56 479.53L1139.72 470.157L1157.78 453.484L1169.97 442.238C1173.8 438.692 1176.16 434.015 1176.63 429.026C1177.11 424.038 1175.66 419.054 1172.56 414.949C1171.82 413.959 1171.55 412.743 1171.78 411.564C1172.01 410.386 1172.74 409.341 1173.81 408.655C1174.87 407.97 1176.19 407.699 1177.47 407.903C1178.75 408.107 1179.89 408.768 1180.64 409.744C1185.07 415.602 1187.12 422.71 1186.44 429.826C1185.77 436.941 1182.4 443.61 1176.94 448.667V448.667Z" fill="#3F3D56"/>
<path d="M1240.26 377.631C1240.26 377.855 1240.26 378.08 1240.25 378.304C1240.17 382.272 1239.24 386.186 1237.52 389.823C1237.08 390.756 1236.58 391.667 1236.04 392.552C1234.56 394.96 1232.74 397.173 1230.62 399.127L1212.99 415.397C1212.06 416.247 1210.81 416.725 1209.5 416.724C1208.2 416.723 1206.95 416.244 1206.03 415.392C1205.1 414.54 1204.58 413.385 1204.58 412.18C1204.58 410.976 1205.1 409.82 1206.02 408.967L1223.65 392.697C1223.7 392.649 1223.75 392.6 1223.8 392.552C1227.87 388.741 1230.23 383.651 1230.4 378.304C1230.41 378.08 1230.41 377.855 1230.41 377.631C1230.41 376.94 1230.37 376.255 1230.3 375.576C1229.79 370.657 1227.44 366.057 1223.65 362.565C1223.3 362.24 1222.94 361.928 1222.57 361.631C1218.35 358.212 1212.94 356.326 1207.32 356.326C1201.71 356.326 1196.29 358.212 1192.08 361.631C1191.71 361.928 1191.35 362.24 1191 362.565L1150.59 399.858C1146.27 403.857 1143.84 409.275 1143.84 414.924C1143.84 420.573 1146.27 425.991 1150.59 429.99C1151.52 430.843 1152.03 431.999 1152.03 433.205C1152.03 434.411 1151.52 435.567 1150.59 436.42C1149.67 437.272 1148.41 437.751 1147.11 437.751C1145.8 437.751 1144.55 437.272 1143.62 436.42C1137.46 430.714 1133.99 422.983 1133.99 414.924C1133.99 406.864 1137.46 399.133 1143.62 393.428L1184.03 356.135C1187.55 352.897 1191.81 350.434 1196.5 348.93C1201.19 347.426 1206.19 346.919 1211.13 347.447C1216.06 347.976 1220.8 349.526 1224.99 351.982C1229.19 354.438 1232.72 357.736 1235.34 361.631C1235.94 362.513 1236.48 363.424 1236.97 364.359C1238.82 367.871 1239.91 371.68 1240.19 375.576C1240.24 376.258 1240.26 376.943 1240.26 377.631Z" fill="#3F3D56"/>
<path d="M1029.16 506.888C1027.66 512.021 1022.5 515.201 1022.5 515.201C1022.5 515.201 1019.79 510.057 1021.29 504.923C1022.8 499.79 1027.95 496.61 1027.95 496.61C1027.95 496.61 1030.67 501.754 1029.16 506.888Z" fill="#6C63FF"/>
<path d="M1015.47 506.888C1016.98 512.021 1022.13 515.201 1022.13 515.201C1022.13 515.201 1024.85 510.057 1023.34 504.923C1021.84 499.79 1016.68 496.61 1016.68 496.61C1016.68 496.61 1013.97 501.754 1015.47 506.888Z" fill="#6C63FF"/>
<path d="M1017.68 505.784C1021.81 509.494 1022.32 515.196 1022.32 515.196C1022.32 515.196 1016.13 514.884 1012 511.175C1007.87 507.465 1007.37 501.763 1007.37 501.763C1007.37 501.763 1013.56 502.075 1017.68 505.784Z" fill="#3F3D56"/>
<path d="M1026.95 505.784C1022.82 509.494 1022.32 515.196 1022.32 515.196C1022.32 515.196 1028.51 514.884 1032.64 511.175C1036.77 507.465 1037.27 501.763 1037.27 501.763C1037.27 501.763 1031.08 502.075 1026.95 505.784Z" fill="#3F3D56"/>
<path d="M1212.34 377.092C1212.34 377.499 1212.3 377.905 1212.21 378.305C1211.91 379.674 1211.1 380.905 1209.93 381.788C1208.76 382.672 1207.29 383.155 1205.77 383.155C1204.26 383.155 1202.79 382.672 1201.62 381.788C1200.45 380.905 1199.64 379.674 1199.34 378.305C1199.14 377.402 1199.16 376.469 1199.41 375.576C1199.81 374.146 1200.76 372.899 1202.08 372.07C1203.41 371.24 1205.01 370.885 1206.6 371.072C1208.19 371.258 1209.65 371.972 1210.71 373.08C1211.76 374.189 1212.34 375.615 1212.34 377.092V377.092Z" fill="#3F3D56"/>
<path d="M1115.45 468.945C1115.45 469.352 1115.4 469.758 1115.31 470.157C1115.01 471.526 1114.2 472.757 1113.03 473.641C1111.86 474.525 1110.39 475.007 1108.88 475.007C1107.36 475.007 1105.89 474.525 1104.72 473.641C1103.55 472.757 1102.74 471.526 1102.44 470.157C1102.24 469.254 1102.27 468.321 1102.51 467.429C1102.91 465.999 1103.86 464.752 1105.19 463.922C1106.51 463.093 1108.12 462.738 1109.7 462.924C1111.29 463.11 1112.75 463.824 1113.81 464.933C1114.86 466.041 1115.45 467.468 1115.45 468.945V468.945Z" fill="#3F3D56"/>
<path d="M1063.88 514.719H988V515.326H1063.88V514.719Z" fill="#3F3D56"/>
<path d="M1178.08 361.632H1192.08C1191.71 361.929 1191.35 362.241 1191 362.566L1189.05 364.36H1175.12L1178.08 361.632Z" fill="#6C63FF"/>
<path d="M1236.97 364.36H1225.39C1224.84 363.732 1224.26 363.133 1223.65 362.566C1223.3 362.241 1222.94 361.929 1222.57 361.632H1235.34C1235.94 362.514 1236.48 363.425 1236.97 364.36V364.36Z" fill="#6C63FF"/>
<path d="M1162.97 375.576H1176.9L1173.95 378.305H1160.01L1162.97 375.576Z" fill="#6C63FF"/>
<path d="M1212.14 375.576C1212.38 376.469 1212.41 377.402 1212.21 378.305H1199.34C1199.14 377.402 1199.16 376.469 1199.41 375.576H1212.14Z" fill="#6C63FF"/>
<path d="M1240.26 377.632C1240.26 377.856 1240.26 378.08 1240.25 378.305H1230.4C1230.41 378.08 1230.41 377.856 1230.41 377.632C1230.41 376.941 1230.37 376.255 1230.3 375.576H1240.19C1240.24 376.258 1240.26 376.944 1240.26 377.632Z" fill="#6C63FF"/>
<path d="M1147.53 389.824H1161.46L1158.51 392.552H1144.57L1147.53 389.824Z" fill="#6C63FF"/>
<path d="M1237.52 389.824C1237.08 390.756 1236.58 391.667 1236.04 392.552H1223.8C1224.71 391.708 1225.53 390.796 1226.26 389.824H1237.52Z" fill="#6C63FF"/>
<path d="M1093.44 453.484C1092.87 454.359 1092.37 455.271 1091.94 456.212H1081.52C1081.8 455.288 1082.13 454.378 1082.5 453.484H1093.44Z" fill="#6C63FF"/>
<path d="M1171.72 453.484L1168.76 456.212H1154.83L1157.78 453.484H1171.72Z" fill="#6C63FF"/>
<path d="M1090.98 470.157H1080.88C1080.69 469.257 1080.55 468.347 1080.45 467.429H1090.37C1090.51 468.35 1090.71 469.261 1090.98 470.157V470.157Z" fill="#6C63FF"/>
<path d="M1115.45 468.944C1115.45 469.352 1115.4 469.758 1115.31 470.157H1102.44C1102.24 469.254 1102.27 468.321 1102.51 467.429H1115.24C1115.38 467.924 1115.45 468.433 1115.45 468.944Z" fill="#6C63FF"/>
<path d="M1156.61 467.429L1153.65 470.157H1139.72L1142.68 467.429H1156.61Z" fill="#6C63FF"/>
<path d="M1105.08 484.405H1088.38C1087.55 483.538 1086.79 482.627 1086.08 481.677H1099.63C1101.3 482.81 1103.14 483.728 1105.08 484.405V484.405Z" fill="#6C63FF"/>
<path d="M1141.17 481.677L1138.21 484.405H1121.4C1123.34 483.728 1125.17 482.81 1126.85 481.677H1141.17Z" fill="#6C63FF"/>
<path d="M1091.66 398.686C1089.15 394.77 1084.18 394.588 1084.18 394.588C1084.18 394.588 1079.34 394.016 1076.24 399.981C1073.34 405.54 1069.35 410.907 1075.59 412.209L1076.72 408.968L1077.42 412.45C1078.31 412.509 1079.2 412.523 1080.09 412.492C1086.78 412.293 1093.15 412.551 1092.95 410.335C1092.68 407.39 1094.08 402.454 1091.66 398.686Z" fill="#2F2E41"/>
<path d="M1073.57 485.163L1073.89 493.044H1079.81L1079.48 484.556L1073.57 485.163Z" fill="#FBBEBE"/>
<path d="M1089.66 429.384L1089.06 431.218L1081.32 454.964L1080.46 457.577L1081.12 485.466L1072.91 486.375C1072.91 486.375 1072.67 483.447 1072.32 479.124C1071.61 470.563 1070.46 456.525 1069.79 448.885C1069.54 446.06 1069.36 444.111 1069.3 443.632C1068.97 441.207 1073.24 429.081 1073.24 429.081L1081.78 428.475L1089.66 429.384Z" fill="#2F2E41"/>
<path d="M1075.54 492.135C1075.54 492.135 1073.24 489.71 1072.91 491.529C1072.58 493.348 1068.64 500.32 1068.64 500.32C1068.64 500.32 1057.14 507.292 1067 507.898C1067 507.898 1071.92 507.292 1073.57 504.867C1073.57 504.867 1076.19 503.351 1076.85 503.351C1077.51 503.351 1081.45 502.139 1080.79 500.32C1080.14 498.501 1080.46 491.832 1080.46 491.832L1075.54 492.135Z" fill="#2F2E41"/>
<path d="M1075.21 477.887L1078.16 483.041L1082.76 480.919L1079.81 474.856L1075.21 477.887Z" fill="#FBBEBE"/>
<path opacity="0.2" d="M1072.91 463.033C1072.91 463.033 1070.46 458.092 1069.79 450.453C1074.54 445.548 1080.3 440.146 1080.3 440.146L1087.2 439.843L1089.33 439.691C1089.83 444.299 1085.61 450.234 1081.32 454.964C1078.71 457.822 1075.9 460.518 1072.91 463.033V463.033Z" fill="black"/>
<path d="M1081.45 439.994C1081.45 439.994 1060.43 456.97 1063.38 463.943C1066.34 470.915 1074.55 479.403 1074.55 479.403L1080.9 475.908L1074.88 463.033C1074.88 463.033 1077.4 460.969 1080.47 457.911C1085.47 452.934 1091.91 445.324 1091.3 439.691L1090.97 429.384L1085.39 429.991L1081.45 439.994Z" fill="#2F2E41"/>
<path d="M1079.48 481.828C1079.48 481.828 1077.18 481.828 1077.51 483.647C1077.84 485.466 1078.49 488.497 1078.49 488.497C1078.49 488.497 1075.86 502.745 1082.11 499.41C1088.35 496.076 1086.7 487.285 1086.7 487.285C1086.7 487.285 1089 481.828 1086.05 481.222C1083.09 480.615 1082.11 480.009 1081.78 480.312C1081.45 480.615 1079.48 481.828 1079.48 481.828Z" fill="#2F2E41"/>
<path d="M1084.08 407.558C1087.34 407.558 1089.99 405.115 1089.99 402.101C1089.99 399.088 1087.34 396.645 1084.08 396.645C1080.81 396.645 1078.16 399.088 1078.16 402.101C1078.16 405.115 1080.81 407.558 1084.08 407.558Z" fill="#FBBEBE"/>
<path d="M1081.78 404.223C1081.78 404.223 1084.41 410.589 1083.42 410.893C1082.43 411.196 1080.46 412.711 1080.46 412.711L1083.75 415.44L1092.29 411.196C1092.29 411.196 1088.35 406.345 1088.68 404.223H1081.78Z" fill="#FBBEBE"/>
<path d="M1092.29 409.983C1092.29 409.983 1085.42 413.11 1082.94 411.092C1082.94 411.092 1078.82 410.893 1078.16 413.015C1077.51 415.137 1078.82 416.955 1077.18 417.562C1075.54 418.168 1074.39 419.835 1075.37 422.564C1076.36 425.292 1076.19 425.747 1074.88 426.656C1073.57 427.565 1072.25 429.384 1072.25 429.991C1072.25 430.597 1070.94 430.597 1071.59 431.203C1072.25 431.809 1070.94 431.203 1072.25 431.809C1073.57 432.416 1077.18 426.959 1079.81 429.687C1082.43 432.416 1090.65 436.963 1091.3 434.235C1091.96 431.506 1093.93 424.837 1093.93 424.837C1093.93 424.837 1100.83 413.015 1098.86 411.802C1096.89 410.589 1092.29 409.983 1092.29 409.983Z" fill="#CFCCE0"/>
<path d="M1091.3 431.203C1091.3 431.203 1087.69 430.597 1086.7 432.719C1085.72 434.841 1080.14 439.691 1083.75 439.994C1087.36 440.298 1089.99 434.841 1089.99 434.841L1093.6 434.235L1091.3 431.203Z" fill="#FBBEBE"/>
<path d="M1094.92 411.802L1099.21 412.023C1099.21 412.023 1101.16 413.924 1101.49 415.743C1101.81 417.562 1108.05 431.203 1104.11 432.719C1100.17 434.235 1091.63 435.144 1091.63 435.144L1090.65 430.9L1096.23 429.081L1092.29 421.503L1094.92 411.802Z" fill="#CFCCE0"/>
<path opacity="0.2" d="M1075.37 463.185L1080.78 475.651L1074.39 463.185L1079.97 457.728L1075.37 463.185Z" fill="black"/>
<path opacity="0.2" d="M1072.13 476.907L1074.39 479.554H1072.74L1072.13 476.907Z" fill="black"/>
<path d="M1084.79 397.923C1086.77 397.923 1088.38 396.438 1088.38 394.607C1088.38 392.776 1086.77 391.292 1084.79 391.292C1082.81 391.292 1081.2 392.776 1081.2 394.607C1081.2 396.438 1082.81 397.923 1084.79 397.923Z" fill="#2F2E41"/>
<path d="M1080.82 393.735C1080.82 392.916 1081.15 392.126 1081.74 391.518C1082.34 390.909 1083.15 390.525 1084.03 390.438C1083.91 390.426 1083.78 390.42 1083.66 390.42C1083.18 390.419 1082.72 390.505 1082.28 390.671C1081.84 390.838 1081.45 391.082 1081.11 391.39C1080.78 391.698 1080.52 392.063 1080.33 392.466C1080.15 392.868 1080.06 393.299 1080.06 393.735C1080.06 394.171 1080.15 394.602 1080.33 395.005C1080.52 395.407 1080.78 395.773 1081.11 396.081C1081.45 396.388 1081.84 396.633 1082.28 396.799C1082.72 396.965 1083.18 397.051 1083.66 397.051C1083.78 397.05 1083.91 397.044 1084.03 397.032C1083.15 396.946 1082.34 396.561 1081.74 395.952C1081.15 395.344 1080.82 394.554 1080.82 393.735V393.735Z" fill="#2F2E41"/>
<path d="M1090.55 398.309L1085.64 395.936L1078.87 396.907L1077.46 402.623L1080.95 402.499L1081.93 400.399V402.465L1083.54 402.407L1084.47 399.064L1085.06 402.623L1090.79 402.515L1090.55 398.309Z" fill="#2F2E41"/>
<path d="M1004.6 386.891L1005.29 387.921L1006.92 386.798L1007.96 388.794L1006.53 389.777L1009.99 394.931L1007.75 396.473L1004.29 391.316L1003.28 392.017L1002.03 390.166L1003.05 389.465L1002.36 388.445C1002.36 388.445 1000.86 386.611 1002.47 385.054L1004.7 383.513L1005.81 385.164L1004.79 385.865C1004.64 385.976 1004.53 386.146 1004.49 386.337C1004.45 386.529 1004.49 386.727 1004.6 386.891V386.891Z" fill="url(#paint2_linear)"/>
<path d="M1005.09 386.142L1005.78 387.172L1007.41 386.05L1008.45 388.046L1007.02 389.029L1010.48 394.183L1008.24 395.725L1004.78 390.568L1003.77 391.269L1002.52 389.418L1003.54 388.717L1002.85 387.696C1002.85 387.696 1001.35 385.863 1002.96 384.306L1005.2 382.764L1006.3 384.416L1005.29 385.117C1005.13 385.228 1005.02 385.397 1004.98 385.589C1004.95 385.78 1004.98 385.979 1005.09 386.142Z" fill="#3B5998"/>
<path d="M1060.28 367.396L1061.85 367.063C1061.85 367.063 1060.53 368.63 1060.28 368.73C1060.26 369.062 1060.26 369.397 1060.28 369.729C1057.27 383.461 1046.16 377.395 1046.16 377.395C1050.21 377.495 1050.56 375.729 1050.56 375.729C1048.2 375.362 1047.73 373.729 1047.73 373.729C1047.94 373.847 1048.19 373.879 1048.42 373.817C1048.65 373.756 1048.85 373.605 1048.99 373.396C1046.45 372.696 1046.79 370.063 1046.79 370.063C1047.24 370.41 1047.77 370.628 1048.33 370.696C1048.05 370.329 1045.66 367.296 1047.1 365.73C1047.1 365.73 1048.86 369.063 1053.47 369.363L1053.79 369.296C1053.73 369.056 1053.71 368.809 1053.72 368.563C1053.72 367.635 1054.07 366.745 1054.69 366.088C1055.31 365.432 1056.14 365.063 1057.02 365.063C1059.21 365.063 1059.68 366.397 1059.68 366.397L1061.25 365.397C1061.22 365.397 1061.06 367.063 1060.28 367.396Z" fill="url(#paint3_linear)"/>
<path d="M1060.77 366.648L1062.34 366.315C1062.34 366.315 1061.02 367.881 1060.77 367.981C1060.75 368.314 1060.75 368.648 1060.77 368.981C1057.76 382.712 1046.66 376.646 1046.66 376.646C1050.7 376.746 1051.05 374.98 1051.05 374.98C1048.69 374.613 1048.22 372.98 1048.22 372.98C1048.44 373.099 1048.68 373.13 1048.91 373.069C1049.14 373.007 1049.35 372.857 1049.48 372.647C1046.94 371.947 1047.28 369.314 1047.28 369.314C1047.74 369.662 1048.27 369.88 1048.82 369.947C1048.54 369.581 1046.15 366.548 1047.6 364.982C1047.6 364.982 1049.35 368.314 1053.96 368.614L1054.28 368.548C1054.23 368.308 1054.2 368.061 1054.22 367.814C1054.22 366.886 1054.56 365.996 1055.18 365.34C1055.8 364.684 1056.64 364.315 1057.51 364.315C1059.71 364.315 1060.18 365.648 1060.18 365.648L1061.74 364.648C1061.71 364.648 1061.56 366.315 1060.77 366.648Z" fill="#00ACED"/>
<path d="M1113.97 364.207L1115.67 358.398C1115.67 358.398 1115.7 357.091 1114.52 356.814C1113.34 356.537 1112.9 356.601 1112.18 357.07L1110.4 363.165L1107.42 362.302L1110.11 353.131L1113.09 353.994L1112.69 355.356C1112.69 355.356 1114.24 353.748 1116.17 354.472C1117.98 355.125 1119.02 356.644 1118.62 359.128L1118.68 359.147L1116.94 365.064L1113.97 364.207ZM1106.89 350.922C1106.54 350.819 1106.23 350.615 1105.99 350.335C1105.75 350.055 1105.6 349.711 1105.56 349.348C1105.52 348.984 1105.59 348.617 1105.76 348.293C1105.93 347.968 1106.2 347.701 1106.52 347.525C1106.84 347.35 1107.21 347.273 1107.58 347.305C1107.94 347.337 1108.29 347.476 1108.58 347.705C1108.86 347.934 1109.08 348.242 1109.19 348.591C1109.3 348.94 1109.3 349.313 1109.2 349.664C1109.13 349.897 1109.02 350.115 1108.86 350.304C1108.71 350.494 1108.52 350.651 1108.31 350.768C1108.09 350.885 1107.86 350.958 1107.62 350.985C1107.37 351.011 1107.13 350.99 1106.89 350.922V350.922ZM1105.34 361.708L1102.37 360.845L1105.05 351.674L1108.03 352.536L1105.34 361.708Z" fill="url(#paint4_linear)"/>
<path d="M1114.46 363.458L1116.16 357.649C1116.16 357.649 1116.19 356.343 1115.01 356.065C1113.83 355.788 1113.39 355.853 1112.68 356.321L1110.89 362.417L1107.91 361.554L1110.6 352.383L1113.58 353.246L1113.18 354.608C1113.18 354.608 1114.73 352.999 1116.67 353.723C1118.48 354.377 1119.51 355.896 1119.11 358.38L1119.17 358.398L1117.43 364.315L1114.46 363.458ZM1107.38 350.173C1107.03 350.071 1106.72 349.867 1106.48 349.586C1106.24 349.306 1106.1 348.963 1106.06 348.599C1106.02 348.236 1106.09 347.868 1106.26 347.544C1106.43 347.22 1106.69 346.953 1107.01 346.777C1107.33 346.601 1107.7 346.524 1108.07 346.556C1108.43 346.588 1108.78 346.727 1109.07 346.956C1109.36 347.185 1109.57 347.494 1109.68 347.842C1109.79 348.191 1109.79 348.565 1109.69 348.916C1109.62 349.149 1109.51 349.366 1109.36 349.556C1109.2 349.745 1109.01 349.903 1108.8 350.019C1108.59 350.136 1108.35 350.21 1108.11 350.236C1107.86 350.263 1107.62 350.241 1107.38 350.173V350.173ZM1105.83 360.959L1102.86 360.096L1105.55 350.925L1108.52 351.788L1105.83 360.959Z" fill="#0077B5"/>
</g>
<path d="M1243.73 329.738C1243.46 331.06 1243.26 332.856 1240.53 333.48C1240.53 333.48 1238.93 333.904 1238.41 332.732C1238.09 334.004 1237.77 335.177 1237.58 335.476C1237.21 336.086 1236.8 336.67 1236.35 337.222C1236.35 337.222 1236.57 334.977 1236.59 334.478C1236.62 333.705 1237.33 330.237 1237.33 330.237C1237.33 330.237 1236.67 327.792 1238.32 327.493C1238.32 327.493 1239.67 327.168 1239.3 328.989C1239.3 328.989 1239.03 330.187 1238.68 331.559L1238.81 331.734C1238.9 331.927 1239.04 332.095 1239.21 332.225C1239.38 332.355 1239.58 332.443 1239.79 332.482C1240.46 332.557 1242.2 331.359 1242.25 329.239C1242.3 327.118 1241.86 326.52 1240.04 325.996C1238.22 325.472 1236.67 326.37 1236.1 327.992C1235.46 329.838 1235.98 330.287 1236.35 330.736L1236.1 331.983C1236.1 331.983 1234.33 331.384 1234.38 329.488C1234.43 327.592 1235.49 324.748 1239.3 324.748C1243.11 324.748 1244 328.391 1243.73 329.738Z" fill="url(#paint5_linear)"/>
<path d="M1244.22 328.99C1243.95 330.312 1243.75 332.108 1241.02 332.732C1241.02 332.732 1239.42 333.156 1238.91 331.983C1238.59 333.256 1238.27 334.428 1238.07 334.728C1237.7 335.338 1237.29 335.921 1236.84 336.474C1236.84 336.474 1237.06 334.229 1237.09 333.73C1237.11 332.956 1237.82 329.489 1237.82 329.489C1237.82 329.489 1237.16 327.044 1238.81 326.744C1238.81 326.744 1240.16 326.42 1239.79 328.241C1239.79 328.241 1239.52 329.439 1239.18 330.811L1239.3 330.985C1239.4 331.179 1239.53 331.347 1239.7 331.477C1239.88 331.607 1240.07 331.695 1240.28 331.734C1240.95 331.809 1242.69 330.611 1242.74 328.491C1242.79 326.37 1242.35 325.771 1240.53 325.247C1238.71 324.723 1237.16 325.622 1236.59 327.243C1235.95 329.089 1236.47 329.538 1236.84 329.988L1236.59 331.235C1236.59 331.235 1234.82 330.636 1234.87 328.74C1234.92 326.844 1235.98 324 1239.79 324C1243.6 324 1244.49 327.642 1244.22 328.99Z" fill="#BD081C"/>
<path d="M1171.97 338.001H1170.37V339.623C1170.37 339.721 1170.33 339.815 1170.26 339.885C1170.19 339.954 1170.1 339.995 1170 339.997H1169.75C1169.66 339.995 1169.56 339.954 1169.5 339.885C1169.43 339.815 1169.39 339.721 1169.38 339.623V338.001H1167.79C1167.69 337.999 1167.6 337.959 1167.53 337.889C1167.46 337.819 1167.42 337.726 1167.42 337.627V337.378C1167.42 337.279 1167.46 337.185 1167.53 337.116C1167.6 337.046 1167.69 337.006 1167.79 337.003H1169.38V335.382C1169.39 335.283 1169.43 335.19 1169.5 335.12C1169.56 335.05 1169.66 335.01 1169.75 335.008H1170C1170.1 335.01 1170.19 335.05 1170.26 335.12C1170.33 335.19 1170.37 335.283 1170.37 335.382V337.003H1171.97C1172.06 337.006 1172.16 337.046 1172.23 337.116C1172.29 337.185 1172.33 337.279 1172.34 337.378V337.627C1172.33 337.726 1172.29 337.819 1172.23 337.889C1172.16 337.959 1172.06 337.999 1171.97 338.001V338.001ZM1166.41 333.613C1166.74 334.048 1166.92 334.584 1166.93 335.135C1166.91 335.657 1166.75 336.164 1166.45 336.59C1166.15 337.017 1165.73 337.344 1165.25 337.53C1165.33 337.779 1165.57 338.054 1166.19 338.503C1167.37 339.376 1167.42 340.998 1167.42 340.998V341.122C1167.42 342.42 1165.87 343.492 1163.97 343.492C1162.08 343.492 1160.53 342.42 1160.53 341.122C1160.53 339.875 1161.93 338.852 1163.73 338.752V337.729C1162.35 337.555 1161.27 336.457 1161.27 335.135C1161.27 333.688 1162.52 332.515 1164.1 332.515H1164.22C1164.22 332.515 1167.05 332.291 1167.42 332.266C1167.79 332.241 1167.66 332.765 1167.66 332.765L1166.41 333.613ZM1162.25 340.995C1162.25 341.818 1163.09 342.492 1164.1 342.492C1165.11 342.492 1165.94 341.818 1165.94 340.995C1165.94 340.172 1165.11 339.498 1164.1 339.498C1163.09 339.498 1162.25 340.172 1162.25 340.995ZM1165.25 334.883C1165.06 333.935 1164.37 333.261 1163.73 333.386C1163.09 333.511 1162.74 334.409 1162.94 335.357C1163.14 336.305 1163.83 336.978 1164.47 336.854C1165.11 336.729 1165.45 335.858 1165.25 334.883Z" fill="url(#paint6_linear)"/>
<path d="M1172.46 337.253H1170.86V338.874C1170.86 338.973 1170.82 339.067 1170.75 339.136C1170.68 339.206 1170.59 339.246 1170.49 339.249H1170.25C1170.15 339.246 1170.06 339.206 1169.99 339.136C1169.92 339.067 1169.88 338.973 1169.88 338.874V337.253H1168.28C1168.18 337.25 1168.09 337.21 1168.02 337.14C1167.95 337.071 1167.91 336.977 1167.91 336.879V336.629C1167.91 336.531 1167.95 336.437 1168.02 336.367C1168.09 336.298 1168.18 336.257 1168.28 336.255H1169.88V334.633C1169.88 334.535 1169.92 334.441 1169.99 334.371C1170.06 334.302 1170.15 334.262 1170.25 334.259H1170.49C1170.59 334.262 1170.68 334.302 1170.75 334.371C1170.82 334.441 1170.86 334.535 1170.86 334.633V336.255H1172.46C1172.56 336.257 1172.65 336.298 1172.72 336.367C1172.79 336.437 1172.83 336.531 1172.83 336.629V336.879C1172.83 336.977 1172.79 337.071 1172.72 337.14C1172.65 337.21 1172.56 337.25 1172.46 337.253ZM1166.9 332.864C1167.23 333.3 1167.42 333.835 1167.42 334.386C1167.4 334.909 1167.24 335.415 1166.94 335.842C1166.64 336.268 1166.23 336.595 1165.74 336.781C1165.82 337.031 1166.06 337.305 1166.68 337.754C1167.86 338.627 1167.91 340.249 1167.91 340.249V340.374C1167.91 341.671 1166.36 342.744 1164.47 342.744C1162.57 342.744 1161.02 341.671 1161.02 340.374C1161.02 339.126 1162.42 338.103 1164.22 338.004V336.981C1162.84 336.806 1161.76 335.708 1161.76 334.386C1161.76 332.939 1163.02 331.767 1164.59 331.767H1164.71C1164.71 331.767 1167.54 331.542 1167.91 331.517C1168.28 331.492 1168.16 332.016 1168.16 332.016L1166.9 332.864ZM1162.74 340.246C1162.74 341.07 1163.58 341.743 1164.59 341.743C1165.6 341.743 1166.43 341.07 1166.43 340.246C1166.43 339.423 1165.6 338.75 1164.59 338.75C1163.58 338.75 1162.74 339.423 1162.74 340.246ZM1165.74 334.134C1165.55 333.186 1164.86 332.513 1164.22 332.637C1163.58 332.762 1163.24 333.66 1163.43 334.608C1163.63 335.556 1164.32 336.23 1164.96 336.105C1165.6 335.98 1165.94 335.11 1165.74 334.134Z" fill="#D34836"/>
</g>
</g>
<defs>
<filter id="filter0_d" x="984" y="324" width="323" height="233" filterUnits="userSpaceOnUse" color-interpolation-filters="sRGB">
<feFlood flood-opacity="0" result="BackgroundImageFix"/>
<feColorMatrix in="SourceAlpha" type="matrix" values="0 0 0 0 0 0 0 0 0 0 0 0 0 0 0 0 0 0 127 0"/>
<feOffset dy="4"/>
<feGaussianBlur stdDeviation="2"/>
<feColorMatrix type="matrix" values="0 0 0 0 0 0 0 0 0 0 0 0 0 0 0 0 0 0 0.25 0"/>
<feBlend mode="normal" in2="BackgroundImageFix" result="effect1_dropShadow"/>
<feBlend mode="normal" in="SourceGraphic" in2="effect1_dropShadow" result="shape"/>
</filter>
<linearGradient id="paint0_linear" x1="1419.36" y1="64.244" x2="68.7514" y2="1231.12" gradientUnits="userSpaceOnUse">
<stop stop-color="#094EFF" stop-opacity="0.6"/>
<stop offset="1" stop-color="#AD5AEE"/>
</linearGradient>
<linearGradient id="paint1_linear" x1="1246.38" y1="391.496" x2="999.655" y2="521.793" gradientUnits="userSpaceOnUse">
<stop stop-color="#837BFF"/>
<stop offset="1" stop-color="#9C00C2"/>
</linearGradient>
<linearGradient id="paint2_linear" x1="1005.86" y1="396.478" x2="1005.86" y2="383.498" gradientUnits="userSpaceOnUse">
<stop stop-color="#808080" stop-opacity="0.25"/>
<stop offset="0.54" stop-color="#808080" stop-opacity="0.12"/>
<stop offset="1" stop-color="#808080" stop-opacity="0.1"/>
</linearGradient>
<linearGradient id="paint3_linear" x1="7649.4" y1="2887.83" x2="7649.4" y2="2327.38" gradientUnits="userSpaceOnUse">
<stop stop-color="#808080" stop-opacity="0.25"/>
<stop offset="0.54" stop-color="#808080" stop-opacity="0.12"/>
<stop offset="1" stop-color="#808080" stop-opacity="0.1"/>
</linearGradient>
<linearGradient id="paint4_linear" x1="13842.1" y1="3787.67" x2="13842.1" y2="2763.11" gradientUnits="userSpaceOnUse">
<stop stop-color="#808080" stop-opacity="0.25"/>
<stop offset="0.54" stop-color="#808080" stop-opacity="0.12"/>
<stop offset="1" stop-color="#808080" stop-opacity="0.1"/>
</linearGradient>
<linearGradient id="paint5_linear" x1="10204.1" y1="3544.15" x2="10204.1" y2="2920.45" gradientUnits="userSpaceOnUse">
<stop stop-color="#808080" stop-opacity="0.25"/>
<stop offset="0.54" stop-color="#808080" stop-opacity="0.12"/>
<stop offset="1" stop-color="#808080" stop-opacity="0.1"/>
</linearGradient>
<linearGradient id="paint6_linear" x1="7842.12" y1="1950.02" x2="8408.75" y2="1950.02" gradientUnits="userSpaceOnUse">
<stop stop-color="#808080" stop-opacity="0.25"/>
<stop offset="0.54" stop-color="#808080" stop-opacity="0.12"/>
<stop offset="1" stop-color="#808080" stop-opacity="0.1"/>
</linearGradient>
<clipPath id="clip0">
<rect width="1568" height="873" fill="white"/>
</clipPath>
<clipPath id="clip1">
<rect x="988" y="347.232" width="315" height="168.093" fill="white"/>
</clipPath>
</defs>
</svg>
