<svg width="1568" height="873" viewBox="0 0 1568 873" fill="none" xmlns="http://www.w3.org/2000/svg">
<g clip-path="url(#clip0)">
<rect width="1568" height="873" fill="white"/>
<path d="M-7.28004 904.143C210 602 1566.6 533 1566.6 32.5134V-122.991L-138.437 -135.572L-125.874 904.143H-7.28004Z" fill="url(#paint0_linear)" stroke="black"/>
<g filter="url(#filter0_d)">
<path d="M1080.72 573.598C1078.38 575.88 1077.48 579.087 1076.47 582.103C1068.35 606.404 1048.33 625.951 1025.54 639.912C1015.89 645.827 1004.14 653.758 1006.25 664.361C1007.39 670.056 1012.37 674.248 1016.08 678.886C1023.86 688.597 1026.38 701.798 1022.67 713.424C1018.46 726.651 1006.68 738.994 1010.32 752.37C1012.57 760.603 1020.21 766.462 1027.54 771.498C1038.99 779.349 1050.81 786.704 1062.99 793.562C1071.15 798.159 1079.84 802.632 1089.35 803.216C1097.73 803.73 1105.94 801.175 1113.89 798.653C1120.85 796.447 1127.97 794.152 1133.58 789.734C1137.25 786.849 1140.17 783.127 1144.24 780.767C1153.79 775.223 1166.07 778.736 1177.03 781.11C1202.89 786.681 1230.57 784.647 1255.18 775.367C1292.93 761.131 1321.7 731.234 1358.62 715.194C1374.5 708.295 1391.77 704.014 1406.47 695.129C1414.75 690.07 1421.86 683.889 1427.5 676.865C1438.61 663.106 1444.62 645.562 1442.88 628.39C1441.15 611.217 1431.42 594.668 1416.15 584.974C1399.8 574.597 1379.15 572.658 1360.55 566.429C1341.34 559.993 1324.25 548.933 1305.22 542.028C1289.83 536.456 1273.07 533.72 1256.19 534.023C1239.3 534.325 1222.72 537.657 1207.65 543.774C1186.94 552.179 1165.95 571.787 1142.89 573.276C1126.46 574.305 1093.55 561.105 1080.72 573.598Z" fill="url(#paint1_linear)"/>
<g clip-path="url(#clip1)">
<path d="M1466 685.235H1344.87V686.123H1466V685.235Z" fill="#3F3D56"/>
<path d="M1371.88 677.264L1375.4 693.678L1382.94 695.453L1380.93 675.933L1371.88 677.264Z" fill="#A0616A"/>
<path d="M1414.1 677.264L1417.62 693.678L1425.16 695.453L1423.15 675.933L1414.1 677.264Z" fill="#A0616A"/>
<path d="M1379.93 690.573C1379.93 690.573 1371.88 690.129 1371.88 692.348C1371.88 694.566 1367.86 702.108 1367.86 702.108C1367.86 702.108 1364.85 710.981 1372.89 710.093C1380.93 709.206 1385.96 701.221 1385.96 701.221L1383.95 692.791L1379.93 690.573Z" fill="#2F2E41"/>
<path d="M1420.2 691.391C1420.2 691.391 1414.84 688.347 1415.22 690.376C1415.61 692.406 1415.99 697.817 1418.67 698.155C1421.35 698.493 1429.4 700.523 1429.78 701.199C1430.17 701.875 1439.36 704.581 1439.36 700.184C1439.36 695.788 1433.61 692.406 1433.61 692.406L1427.1 688.009C1427.1 688.009 1422.89 687.671 1422.12 690.038C1421.35 692.406 1420.2 691.391 1420.2 691.391Z" fill="#2F2E41"/>
<path d="M1369.25 583.863C1369.25 583.863 1360.7 572.772 1357.69 576.321C1354.67 579.87 1365.23 586.525 1365.23 586.525L1369.25 583.863Z" fill="#A0616A"/>
<path d="M1372.26 594.51C1371.76 594.067 1362.71 586.525 1362.71 586.525L1369.25 582.532L1376.79 589.187L1372.26 594.51Z" fill="#575A89"/>
<path d="M1373.52 560.128C1373.52 560.128 1366.99 560.572 1367.49 565.452C1367.99 570.332 1372.26 586.525 1372.26 586.525L1374.78 590.961C1374.78 590.961 1384.08 565.452 1373.52 560.128Z" fill="#575A89"/>
<path d="M1374.02 544.6L1375.83 549.924H1398.5L1399.15 544.157L1401.11 549.924H1404.03L1404.68 544.157L1406.64 549.924H1409.71L1406.83 543.794C1405.49 540.864 1404.47 537.827 1403.79 534.725C1402.89 530.874 1400.51 527.414 1397.06 524.929C1393.6 522.445 1389.28 521.088 1384.83 521.087C1384.56 521.087 1384.3 521.092 1384.03 521.102C1371.33 521.556 1363.19 533.3 1368.06 543.666L1371.01 549.924H1373.42L1374.02 544.6Z" fill="#2F2E41"/>
<path d="M1373.77 590.961C1373.77 590.961 1358.19 602.496 1362.71 618.023C1367.24 633.551 1368.75 682.352 1368.75 682.352L1384.33 681.021V619.798L1405.94 656.177L1409.46 682.352L1427.05 679.69L1419.01 647.747L1403.54 607.031L1401.92 595.284L1373.77 590.961Z" fill="#2F2E41"/>
<path d="M1384.58 545.044C1390.41 545.044 1395.13 540.873 1395.13 535.728C1395.13 530.582 1390.41 526.411 1384.58 526.411C1378.75 526.411 1374.02 530.582 1374.02 535.728C1374.02 540.873 1378.75 545.044 1384.58 545.044Z" fill="#A0616A"/>
<path d="M1378.3 542.161C1378.3 542.161 1382.82 556.801 1380.31 558.575C1377.79 560.35 1397.9 552.808 1397.9 552.808C1397.9 552.808 1389.35 544.379 1390.36 540.83L1378.3 542.161Z" fill="#A0616A"/>
<path d="M1396.89 549.702C1396.89 549.702 1388.84 555.812 1381.06 556.306C1381.06 556.306 1370.76 561.237 1371.26 561.681C1371.76 562.124 1373.27 568.335 1373.27 568.335C1373.27 568.335 1375.78 571.761 1375.78 578.983C1375.78 579.87 1372.26 592.292 1372.26 592.292L1401.92 595.841C1401.92 595.841 1409.96 572.772 1410.46 564.786C1410.96 556.801 1413.98 548.371 1409.46 547.928C1404.93 547.484 1396.89 549.702 1396.89 549.702Z" fill="#575A89"/>
<path d="M1408.45 549.703C1408.45 549.703 1411.97 547.041 1413.98 553.252C1415.99 559.463 1424.03 578.983 1422.02 582.976C1420.01 586.969 1407.95 604.714 1407.95 604.714L1401.92 601.165L1413.98 581.201L1406.94 567.005L1408.45 549.703Z" fill="#575A89"/>
<path d="M1404.43 600.721C1404.43 600.721 1388.85 609.151 1393.88 610.925C1398.9 612.7 1407.45 603.383 1407.45 603.383L1404.43 600.721Z" fill="#A0616A"/>
<path d="M1373.02 525.08V534.397H1377.04L1378.55 530.404L1378.92 534.397H1390.11L1391.61 530.404L1391.99 534.397H1396.64V525.08H1373.02Z" fill="#2F2E41"/>
<path opacity="0.2" d="M1373.02 569.001C1373.02 569.001 1372.01 577.874 1373.52 579.648C1375.03 581.423 1373.02 569.001 1373.02 569.001Z" fill="black"/>
<path d="M1286.07 723.832H1072.96V724.72H1286.07V723.832Z" fill="#3F3D56"/>
<path d="M1273.1 656.447L1211.27 711.024C1201.82 719.367 1189 724.054 1175.63 724.054C1162.27 724.054 1149.45 719.367 1139.99 711.024C1139.16 710.288 1138.36 709.529 1137.59 708.749C1136.33 707.48 1135.16 706.146 1134.08 704.756C1130.11 699.692 1127.4 693.948 1126.12 687.897C1125.83 686.58 1125.61 685.249 1125.47 683.905C1125.31 682.472 1125.23 681.025 1125.23 679.566C1125.23 675.484 1125.86 671.421 1127.1 667.49C1127.53 666.137 1128.03 664.806 1128.61 663.497C1131.14 657.722 1135.02 652.479 1139.99 648.107L1166.97 624.297C1168.38 623.049 1170.3 622.348 1172.3 622.348C1174.3 622.348 1176.22 623.049 1177.63 624.297C1179.04 625.544 1179.84 627.237 1179.84 629.001C1179.84 630.766 1179.04 632.459 1177.63 633.706L1150.65 657.517C1148.62 659.313 1146.83 661.321 1145.34 663.497C1142.03 668.346 1140.29 673.904 1140.31 679.566C1140.31 681.017 1140.42 682.467 1140.65 683.905C1140.86 685.252 1141.17 686.586 1141.58 687.897C1143.23 693.153 1146.41 697.935 1150.8 701.767C1155.2 705.599 1160.66 708.346 1166.63 709.734C1172.6 711.122 1178.89 711.103 1184.85 709.678C1190.81 708.254 1196.25 705.473 1200.61 701.615L1216.15 687.897L1243.8 663.497L1262.44 647.038C1268.31 641.848 1271.92 635.004 1272.64 627.704C1273.36 620.403 1271.15 613.11 1266.4 607.101C1265.28 605.653 1264.85 603.873 1265.21 602.148C1265.57 600.424 1266.69 598.894 1268.31 597.891C1269.94 596.888 1271.96 596.492 1273.91 596.79C1275.87 597.089 1277.62 598.056 1278.77 599.484C1285.54 608.058 1288.69 618.46 1287.65 628.873C1286.62 639.286 1281.47 649.046 1273.1 656.447Z" fill="#3F3D56"/>
<path d="M1370 552.488C1370 552.816 1370 553.144 1369.99 553.473C1369.86 559.28 1368.43 565.008 1365.8 570.331C1365.13 571.696 1364.37 573.028 1363.54 574.324C1361.28 577.849 1358.49 581.086 1355.24 583.946L1328.27 607.757C1326.85 609.002 1324.94 609.7 1322.94 609.699C1320.94 609.698 1319.03 608.997 1317.61 607.75C1316.2 606.503 1315.41 604.813 1315.41 603.05C1315.4 601.287 1316.19 599.595 1317.61 598.347L1344.58 574.537C1344.66 574.466 1344.74 574.395 1344.82 574.324C1351.04 568.747 1354.64 561.298 1354.9 553.473C1354.92 553.144 1354.92 552.816 1354.92 552.488C1354.92 551.476 1354.87 550.474 1354.76 549.48C1353.98 542.282 1350.38 535.55 1344.58 530.439C1344.04 529.964 1343.49 529.507 1342.93 529.072C1336.48 524.068 1328.19 521.308 1319.6 521.308C1311.01 521.308 1302.72 524.068 1296.27 529.072C1295.71 529.507 1295.16 529.964 1294.62 530.439L1232.79 585.016C1226.18 590.868 1222.46 598.798 1222.46 607.065C1222.46 615.331 1226.18 623.261 1232.79 629.114C1234.2 630.362 1235 632.054 1235 633.819C1235 635.583 1234.2 637.276 1232.79 638.523C1231.38 639.771 1229.46 640.472 1227.46 640.472C1225.46 640.472 1223.54 639.771 1222.13 638.523C1212.69 630.173 1207.39 618.86 1207.39 607.065C1207.39 595.269 1212.69 583.956 1222.13 575.606L1283.96 521.029C1289.34 516.291 1295.86 512.686 1303.04 510.485C1310.22 508.283 1317.87 507.541 1325.42 508.315C1332.97 509.088 1340.22 511.356 1346.64 514.951C1353.05 518.545 1358.47 523.372 1362.47 529.072C1363.39 530.363 1364.22 531.696 1364.97 533.065C1367.8 538.204 1369.47 543.779 1369.89 549.48C1369.96 550.478 1370 551.481 1370 552.488Z" fill="#3F3D56"/>
<path d="M1046.98 741.652C1044.68 749.164 1036.8 753.817 1036.8 753.817C1036.8 753.817 1032.64 746.289 1034.94 738.777C1037.25 731.264 1045.13 726.611 1045.13 726.611C1045.13 726.611 1049.29 734.139 1046.98 741.652Z" fill="#6C63FF"/>
<path d="M1026.04 741.652C1028.34 749.164 1036.23 753.817 1036.23 753.817C1036.23 753.817 1040.38 746.289 1038.08 738.777C1035.78 731.264 1027.89 726.611 1027.89 726.611C1027.89 726.611 1023.74 734.139 1026.04 741.652Z" fill="#6C63FF"/>
<path d="M1029.42 740.037C1035.74 745.466 1036.51 753.811 1036.51 753.811C1036.51 753.811 1027.04 753.355 1020.72 747.926C1014.4 742.497 1013.63 734.152 1013.63 734.152C1013.63 734.152 1023.1 734.608 1029.42 740.037Z" fill="#3F3D56"/>
<path d="M1043.6 740.037C1037.28 745.466 1036.51 753.811 1036.51 753.811C1036.51 753.811 1045.98 753.355 1052.3 747.926C1058.62 742.497 1059.39 734.152 1059.39 734.152C1059.39 734.152 1049.92 734.608 1043.6 740.037Z" fill="#3F3D56"/>
<path d="M1327.28 551.699C1327.28 552.295 1327.21 552.889 1327.08 553.473C1326.62 555.477 1325.38 557.278 1323.59 558.572C1321.79 559.865 1319.55 560.572 1317.23 560.572C1314.91 560.572 1312.67 559.865 1310.87 558.572C1309.07 557.278 1307.84 555.477 1307.38 553.473C1307.07 552.152 1307.11 550.787 1307.49 549.481C1308.1 547.388 1309.56 545.563 1311.58 544.349C1313.61 543.135 1316.07 542.616 1318.49 542.888C1320.92 543.16 1323.16 544.206 1324.77 545.828C1326.39 547.45 1327.28 549.538 1327.28 551.699Z" fill="#3F3D56"/>
<path d="M1179.01 686.123C1179.01 686.719 1178.94 687.313 1178.81 687.897C1178.35 689.901 1177.11 691.702 1175.32 692.996C1173.52 694.289 1171.28 694.995 1168.96 694.995C1166.64 694.995 1164.4 694.289 1162.6 692.996C1160.81 691.702 1159.57 689.901 1159.11 687.897C1158.81 686.576 1158.85 685.211 1159.22 683.904C1159.83 681.811 1161.29 679.987 1163.31 678.773C1165.34 677.559 1167.8 677.039 1170.23 677.312C1172.65 677.584 1174.89 678.629 1176.51 680.252C1178.12 681.874 1179.01 683.961 1179.01 686.123Z" fill="#3F3D56"/>
<path d="M1100.1 753.113H984V754H1100.1V753.113Z" fill="#3F3D56"/>
<path d="M1274.85 529.073H1296.27C1295.71 529.508 1295.16 529.965 1294.62 530.439L1291.65 533.066H1270.33L1274.85 529.073Z" fill="#6C63FF"/>
<path d="M1364.97 533.066H1347.24C1346.41 532.147 1345.52 531.27 1344.58 530.439C1344.04 529.965 1343.49 529.508 1342.93 529.073H1362.47C1363.39 530.364 1364.22 531.697 1364.97 533.066Z" fill="#6C63FF"/>
<path d="M1251.73 549.481H1273.05L1268.53 553.473H1247.21L1251.73 549.481Z" fill="#6C63FF"/>
<path d="M1326.96 549.481C1327.34 550.787 1327.38 552.152 1327.08 553.473H1307.38C1307.07 552.152 1307.11 550.787 1307.49 549.481H1326.96Z" fill="#6C63FF"/>
<path d="M1370 552.489C1370 552.817 1370 553.145 1369.99 553.473H1354.9C1354.92 553.145 1354.92 552.817 1354.92 552.489C1354.92 551.477 1354.87 550.474 1354.76 549.481H1369.89C1369.96 550.479 1370 551.482 1370 552.489Z" fill="#6C63FF"/>
<path d="M1228.11 570.332H1249.43L1244.9 574.325H1223.58L1228.11 570.332Z" fill="#6C63FF"/>
<path d="M1365.8 570.332C1365.13 571.696 1364.37 573.029 1363.54 574.325H1344.82C1346.2 573.09 1347.46 571.754 1348.58 570.332H1365.8Z" fill="#6C63FF"/>
<path d="M1145.34 663.497C1144.47 664.777 1143.7 666.111 1143.04 667.49H1127.1C1127.53 666.136 1128.03 664.806 1128.61 663.497H1145.34Z" fill="#6C63FF"/>
<path d="M1265.12 663.497L1260.59 667.49H1239.27L1243.8 663.497H1265.12Z" fill="#6C63FF"/>
<path d="M1141.58 687.897H1126.12C1125.83 686.579 1125.61 685.249 1125.47 683.904H1140.65C1140.86 685.252 1141.17 686.586 1141.58 687.897Z" fill="#6C63FF"/>
<path d="M1179.01 686.123C1179.01 686.718 1178.94 687.313 1178.81 687.897H1159.11C1158.81 686.575 1158.85 685.211 1159.22 683.904H1178.69C1178.91 684.629 1179.01 685.374 1179.01 686.123Z" fill="#6C63FF"/>
<path d="M1242 683.904L1237.47 687.897H1216.15L1220.68 683.904H1242Z" fill="#6C63FF"/>
<path d="M1163.15 708.748H1137.59C1136.33 707.479 1135.16 706.146 1134.08 704.756H1154.81C1157.37 706.415 1160.18 707.758 1163.15 708.748Z" fill="#6C63FF"/>
<path d="M1218.38 704.756L1213.85 708.748H1188.12C1191.09 707.758 1193.9 706.415 1196.46 704.756H1218.38Z" fill="#6C63FF"/>
<path d="M1142.62 583.302C1138.78 577.57 1131.17 577.303 1131.17 577.303C1131.17 577.303 1123.77 576.467 1119.01 585.196C1114.59 593.332 1108.47 601.187 1118.03 603.091L1119.76 598.348L1120.83 603.444C1122.19 603.531 1123.55 603.551 1124.92 603.506C1135.15 603.214 1144.9 603.591 1144.59 600.349C1144.17 596.039 1146.32 588.816 1142.62 583.302Z" fill="#2F2E41"/>
<path d="M1114.93 709.857L1115.43 721.392H1124.48L1123.98 708.97L1114.93 709.857Z" fill="#FBBEBE"/>
<path d="M1139.56 628.227L1138.64 630.911L1126.79 665.662L1125.48 669.486L1126.49 710.301L1113.92 711.632C1113.92 711.632 1113.56 707.346 1113.02 701.02C1111.94 688.492 1110.17 667.947 1109.14 656.767C1108.77 652.632 1108.5 649.779 1108.4 649.078C1107.89 645.529 1114.43 627.784 1114.43 627.784L1127.49 626.896L1139.56 628.227Z" fill="#2F2E41"/>
<path d="M1117.94 720.061C1117.94 720.061 1114.43 716.512 1113.92 719.174C1113.42 721.836 1107.39 732.04 1107.39 732.04C1107.39 732.04 1089.8 742.243 1104.88 743.131C1104.88 743.131 1112.42 742.243 1114.93 738.694C1114.93 738.694 1118.95 736.476 1119.96 736.476C1120.96 736.476 1126.99 734.702 1125.99 732.04C1124.98 729.378 1125.48 719.618 1125.48 719.618L1117.94 720.061Z" fill="#2F2E41"/>
<path d="M1117.44 699.21L1121.97 706.752L1129 703.647L1124.48 694.774L1117.44 699.21Z" fill="#FBBEBE"/>
<path opacity="0.2" d="M1113.92 677.472C1113.92 677.472 1110.17 670.24 1109.15 659.06C1116.43 651.882 1125.23 643.976 1125.23 643.976L1135.79 643.533L1139.05 643.311C1139.82 650.054 1133.35 658.741 1126.79 665.662C1122.8 669.845 1118.5 673.79 1113.92 677.472Z" fill="black"/>
<path d="M1126.99 643.755C1126.99 643.755 1094.82 668.599 1099.35 678.803C1103.87 689.006 1116.44 701.428 1116.44 701.428L1126.14 696.314L1116.94 677.472C1116.94 677.472 1120.8 674.451 1125.5 669.975C1133.14 662.692 1143 651.555 1142.07 643.311L1141.57 628.227L1133.02 629.115L1126.99 643.755Z" fill="#2F2E41"/>
<path d="M1123.98 704.977C1123.98 704.977 1120.46 704.977 1120.96 707.639C1121.46 710.301 1122.47 714.737 1122.47 714.737C1122.47 714.737 1118.45 735.589 1128 730.709C1137.55 725.829 1135.03 712.963 1135.03 712.963C1135.03 712.963 1138.55 704.977 1134.03 704.09C1129.5 703.203 1128 702.315 1127.49 702.759C1126.99 703.203 1123.98 704.977 1123.98 704.977Z" fill="#2F2E41"/>
<path d="M1131.01 596.285C1136.01 596.285 1140.06 592.71 1140.06 588.299C1140.06 583.889 1136.01 580.314 1131.01 580.314C1126.02 580.314 1121.97 583.889 1121.97 588.299C1121.97 592.71 1126.02 596.285 1131.01 596.285Z" fill="#FBBEBE"/>
<path d="M1127.49 591.405C1127.49 591.405 1131.52 600.721 1130.01 601.165C1128.5 601.609 1125.48 603.827 1125.48 603.827L1130.51 607.82L1143.58 601.609C1143.58 601.609 1137.55 594.51 1138.05 591.405H1127.49Z" fill="#FBBEBE"/>
<path d="M1143.58 599.834C1143.58 599.834 1133.06 604.41 1129.27 601.457C1129.27 601.457 1122.97 601.165 1121.97 604.27C1120.96 607.376 1122.97 610.038 1120.46 610.925C1117.94 611.812 1116.19 614.252 1117.69 618.245C1119.2 622.238 1118.95 622.903 1116.94 624.234C1114.93 625.565 1112.92 628.227 1112.92 629.114C1112.92 630.002 1110.91 630.002 1111.91 630.889C1112.92 631.776 1110.91 630.889 1112.92 631.776C1114.93 632.664 1120.46 624.678 1124.48 628.671C1128.5 632.664 1141.06 639.318 1142.07 635.325C1143.08 631.333 1146.09 621.572 1146.09 621.572C1146.09 621.572 1156.65 604.27 1153.63 602.496C1150.61 600.721 1143.58 599.834 1143.58 599.834Z" fill="#CFCCE0"/>
<path d="M1142.07 630.889C1142.07 630.889 1136.54 630.002 1135.03 633.107C1133.53 636.213 1124.98 643.311 1130.51 643.755C1136.04 644.198 1140.06 636.213 1140.06 636.213L1145.59 635.325L1142.07 630.889Z" fill="#FBBEBE"/>
<path d="M1147.6 602.496L1154.17 602.819C1154.17 602.819 1157.15 605.601 1157.65 608.263C1158.15 610.925 1167.7 630.889 1161.67 633.107C1155.64 635.325 1142.57 636.656 1142.57 636.656L1141.06 630.445L1149.61 627.783L1143.58 616.692L1147.6 602.496Z" fill="#CFCCE0"/>
<path opacity="0.2" d="M1117.69 677.693L1125.96 695.937L1116.19 677.693L1124.73 669.708L1117.69 677.693Z" fill="black"/>
<path opacity="0.2" d="M1112.74 697.775L1116.19 701.65H1113.67L1112.74 697.775Z" fill="black"/>
<path d="M1132.11 582.184C1135.14 582.184 1137.6 580.012 1137.6 577.332C1137.6 574.653 1135.14 572.48 1132.11 572.48C1129.07 572.48 1126.61 574.653 1126.61 577.332C1126.61 580.012 1129.07 582.184 1132.11 582.184Z" fill="#2F2E41"/>
<path d="M1126.03 576.055C1126.03 574.857 1126.53 573.701 1127.44 572.81C1128.35 571.92 1129.6 571.357 1130.95 571.231C1130.76 571.213 1130.56 571.204 1130.37 571.203C1129.65 571.203 1128.93 571.328 1128.26 571.571C1127.6 571.815 1126.99 572.172 1126.48 572.623C1125.97 573.073 1125.56 573.609 1125.29 574.198C1125.01 574.787 1124.87 575.418 1124.87 576.055C1124.87 576.693 1125.01 577.324 1125.29 577.913C1125.56 578.502 1125.97 579.037 1126.48 579.488C1126.99 579.939 1127.6 580.296 1128.26 580.539C1128.93 580.783 1129.65 580.908 1130.37 580.907C1130.56 580.907 1130.76 580.898 1130.95 580.88C1129.6 580.754 1128.35 580.191 1127.44 579.3C1126.53 578.41 1126.03 577.254 1126.03 576.055Z" fill="#2F2E41"/>
<path d="M1140.92 582.749L1133.41 579.277L1123.04 580.697L1120.89 589.063L1126.23 588.881L1127.73 585.808V588.831L1130.19 588.747L1131.62 583.854L1132.52 589.063L1141.28 588.905L1140.92 582.749Z" fill="#2F2E41"/>
<path d="M1009.4 566.039L1010.45 567.547L1012.95 565.904L1014.54 568.825L1012.36 570.263L1017.65 577.806L1014.22 580.063L1008.93 572.516L1007.38 573.542L1005.47 570.833L1007.02 569.807L1005.97 568.313C1005.97 568.313 1003.68 565.63 1006.13 563.352L1009.56 561.095L1011.25 563.512L1009.7 564.538C1009.46 564.701 1009.29 564.949 1009.23 565.229C1009.18 565.509 1009.24 565.8 1009.4 566.039Z" fill="url(#paint2_linear)"/>
<path d="M1010.15 564.944L1011.21 566.451L1013.7 564.808L1015.29 567.729L1013.11 569.168L1018.4 576.711L1014.97 578.967L1009.68 571.421L1008.13 572.446L1006.22 569.737L1007.77 568.711L1006.72 567.218C1006.72 567.218 1004.43 564.535 1006.89 562.256L1010.31 560L1012 562.417L1010.45 563.443C1010.21 563.606 1010.04 563.854 1009.99 564.134C1009.93 564.414 1009.99 564.705 1010.15 564.944Z" fill="#3B5998"/>
<path d="M1094.6 537.509L1097 537.022C1097 537.022 1094.98 539.314 1094.6 539.46C1094.56 539.948 1094.56 540.437 1094.6 540.924C1089.99 561.019 1073 552.142 1073 552.142C1079.19 552.288 1079.72 549.703 1079.72 549.703C1076.12 549.167 1075.4 546.777 1075.4 546.777C1075.72 546.95 1076.1 546.996 1076.45 546.906C1076.81 546.816 1077.12 546.596 1077.32 546.289C1073.43 545.265 1073.96 541.411 1073.96 541.411C1074.65 541.92 1075.46 542.239 1076.31 542.338C1075.88 541.802 1072.23 537.363 1074.44 535.071C1074.44 535.071 1077.13 539.948 1084.18 540.387L1084.66 540.29C1084.58 539.938 1084.55 539.577 1084.57 539.217C1084.57 537.858 1085.1 536.556 1086.04 535.595C1086.99 534.635 1088.27 534.095 1089.61 534.095C1092.97 534.095 1093.69 536.046 1093.69 536.046L1096.09 534.583C1096.04 534.583 1095.8 537.022 1094.6 537.509Z" fill="url(#paint3_linear)"/>
<path d="M1095.35 536.414L1097.75 535.927C1097.75 535.927 1095.74 538.219 1095.35 538.365C1095.32 538.852 1095.32 539.341 1095.35 539.829C1090.74 559.924 1073.75 551.047 1073.75 551.047C1079.94 551.193 1080.47 548.608 1080.47 548.608C1076.87 548.072 1076.15 545.682 1076.15 545.682C1076.48 545.855 1076.85 545.901 1077.2 545.811C1077.56 545.721 1077.87 545.501 1078.07 545.194C1074.18 544.169 1074.71 540.316 1074.71 540.316C1075.41 540.825 1076.22 541.144 1077.06 541.243C1076.63 540.706 1072.98 536.268 1075.19 533.976C1075.19 533.976 1077.88 538.853 1084.94 539.292L1085.42 539.194C1085.34 538.843 1085.3 538.482 1085.32 538.121C1085.32 536.763 1085.85 535.46 1086.8 534.5C1087.74 533.54 1089.02 533 1090.36 533C1093.72 533 1094.44 534.951 1094.44 534.951L1096.84 533.488C1096.79 533.488 1096.55 535.927 1095.35 536.414Z" fill="#00ACED"/>
<path d="M1176.75 532.841L1179.35 524.34C1179.35 524.34 1179.4 522.428 1177.59 522.022C1175.79 521.616 1175.12 521.711 1174.02 522.396L1171.29 531.317L1166.74 530.054L1170.85 516.633L1175.4 517.895L1174.79 519.889C1174.79 519.889 1177.16 517.535 1180.13 518.594C1182.9 519.551 1184.48 521.774 1183.87 525.409L1183.96 525.436L1181.3 534.095L1176.75 532.841ZM1165.92 513.399C1165.38 513.249 1164.9 512.95 1164.54 512.54C1164.18 512.13 1163.95 511.627 1163.89 511.095C1163.83 510.563 1163.94 510.026 1164.2 509.551C1164.46 509.077 1164.86 508.686 1165.35 508.429C1165.85 508.171 1166.41 508.059 1166.97 508.106C1167.53 508.152 1168.06 508.356 1168.5 508.691C1168.94 509.026 1169.27 509.478 1169.44 509.988C1169.61 510.498 1169.61 511.045 1169.45 511.559C1169.35 511.9 1169.17 512.218 1168.94 512.495C1168.71 512.772 1168.42 513.003 1168.09 513.174C1167.76 513.345 1167.4 513.453 1167.03 513.491C1166.66 513.53 1166.28 513.498 1165.92 513.399ZM1163.55 529.184L1159 527.921L1163.11 514.499L1167.67 515.762L1163.55 529.184Z" fill="url(#paint4_linear)"/>
<path d="M1177.51 531.746L1180.11 523.245C1180.11 523.245 1180.15 521.333 1178.35 520.927C1176.54 520.521 1175.87 520.616 1174.77 521.301L1172.04 530.222L1167.49 528.959L1171.6 515.537L1176.15 516.8L1175.54 518.794C1175.54 518.794 1177.91 516.439 1180.88 517.499C1183.65 518.455 1185.24 520.679 1184.62 524.314L1184.71 524.341L1182.05 533L1177.51 531.746ZM1166.68 512.304C1166.14 512.154 1165.66 511.855 1165.29 511.445C1164.93 511.035 1164.71 510.532 1164.65 510C1164.58 509.468 1164.69 508.931 1164.95 508.456C1165.21 507.981 1165.61 507.591 1166.11 507.333C1166.6 507.076 1167.16 506.964 1167.72 507.01C1168.28 507.057 1168.82 507.261 1169.26 507.596C1169.69 507.931 1170.02 508.382 1170.19 508.893C1170.36 509.403 1170.36 509.95 1170.21 510.464C1170.1 510.805 1169.93 511.123 1169.69 511.4C1169.46 511.677 1169.17 511.908 1168.84 512.079C1168.51 512.249 1168.16 512.357 1167.78 512.396C1167.41 512.435 1167.04 512.403 1166.68 512.304ZM1164.31 528.089L1159.75 526.826L1163.86 513.404L1168.42 514.667L1164.31 528.089Z" fill="#0077B5"/>
</g>
<path d="M1375.3 482.397C1374.89 484.332 1374.59 486.961 1370.41 487.874C1370.41 487.874 1367.96 488.495 1367.17 486.779C1366.68 488.641 1366.19 490.357 1365.89 490.795C1365.33 491.688 1364.7 492.542 1364.01 493.351C1364.01 493.351 1364.35 490.065 1364.39 489.334C1364.43 488.203 1365.52 483.128 1365.52 483.128C1365.52 483.128 1364.5 479.55 1367.02 479.111C1367.02 479.111 1369.09 478.637 1368.53 481.302C1368.53 481.302 1368.11 483.055 1367.59 485.063L1367.78 485.318C1367.92 485.601 1368.13 485.847 1368.4 486.037C1368.66 486.227 1368.96 486.356 1369.28 486.414C1370.3 486.523 1372.97 484.771 1373.04 481.667C1373.12 478.564 1372.44 477.687 1369.66 476.921C1366.87 476.154 1364.5 477.468 1363.64 479.842C1362.66 482.543 1363.45 483.201 1364.01 483.858L1363.64 485.683C1363.64 485.683 1360.93 484.807 1361 482.032C1361.08 479.257 1362.69 475.095 1368.53 475.095C1374.36 475.095 1375.72 480.426 1375.3 482.397Z" fill="url(#paint5_linear)"/>
<path d="M1376.05 481.302C1375.64 483.237 1375.34 485.866 1371.16 486.779C1371.16 486.779 1368.72 487.399 1367.93 485.683C1367.44 487.545 1366.95 489.261 1366.65 489.7C1366.08 490.592 1365.45 491.446 1364.76 492.255C1364.76 492.255 1365.1 488.969 1365.14 488.239C1365.18 487.107 1366.27 482.032 1366.27 482.032C1366.27 482.032 1365.25 478.454 1367.78 478.016C1367.78 478.016 1369.85 477.542 1369.28 480.207C1369.28 480.207 1368.87 481.959 1368.34 483.967L1368.53 484.223C1368.67 484.506 1368.89 484.752 1369.15 484.942C1369.41 485.132 1369.71 485.261 1370.03 485.318C1371.05 485.428 1373.72 483.675 1373.8 480.572C1373.87 477.469 1373.19 476.592 1370.41 475.826C1367.62 475.059 1365.25 476.373 1364.39 478.746C1363.41 481.448 1364.2 482.105 1364.76 482.763L1364.39 484.588C1364.39 484.588 1361.68 483.712 1361.75 480.937C1361.83 478.162 1363.45 474 1369.28 474C1375.11 474 1376.47 479.331 1376.05 481.302Z" fill="#BD081C"/>
<path d="M1265.5 494.49H1263.05V496.863C1263.05 497.008 1262.99 497.145 1262.88 497.247C1262.78 497.349 1262.64 497.407 1262.49 497.411H1262.11C1261.96 497.407 1261.82 497.349 1261.72 497.247C1261.61 497.145 1261.55 497.008 1261.55 496.863V494.49H1259.1C1258.95 494.487 1258.81 494.428 1258.71 494.326C1258.6 494.224 1258.54 494.087 1258.54 493.943V493.578C1258.54 493.433 1258.6 493.296 1258.71 493.194C1258.81 493.092 1258.95 493.034 1259.1 493.03H1261.55V490.657C1261.55 490.513 1261.61 490.375 1261.72 490.273C1261.82 490.172 1261.96 490.113 1262.11 490.109H1262.49C1262.64 490.113 1262.78 490.172 1262.88 490.273C1262.99 490.375 1263.05 490.513 1263.05 490.657V493.03H1265.5C1265.65 493.034 1265.79 493.092 1265.89 493.194C1266 493.296 1266.06 493.433 1266.06 493.578V493.943C1266.06 494.087 1266 494.224 1265.89 494.326C1265.79 494.428 1265.65 494.487 1265.5 494.49V494.49ZM1256.99 488.068C1257.5 488.705 1257.78 489.489 1257.78 490.295C1257.76 491.06 1257.51 491.801 1257.05 492.425C1256.6 493.049 1255.96 493.528 1255.23 493.8C1255.34 494.165 1255.71 494.567 1256.66 495.224C1258.46 496.502 1258.54 498.875 1258.54 498.875V499.058C1258.54 500.956 1256.17 502.526 1253.27 502.526C1250.37 502.526 1248 500.956 1248 499.058C1248 497.232 1250.15 495.735 1252.89 495.589V494.092C1250.78 493.837 1249.13 492.23 1249.13 490.295C1249.13 488.178 1251.05 486.462 1253.46 486.462H1253.64C1253.64 486.462 1257.97 486.133 1258.54 486.096C1259.1 486.06 1258.91 486.827 1258.91 486.827L1256.99 488.068ZM1250.63 498.872C1250.63 500.076 1251.91 501.062 1253.46 501.062C1255 501.062 1256.28 500.076 1256.28 498.872C1256.28 497.667 1255 496.681 1253.46 496.681C1251.91 496.681 1250.63 497.667 1250.63 498.872ZM1255.23 489.926C1254.92 488.539 1253.87 487.553 1252.89 487.736C1251.91 487.918 1251.39 489.233 1251.69 490.62C1251.99 492.008 1253.04 492.993 1254.02 492.811C1255 492.628 1255.53 491.354 1255.23 489.926Z" fill="url(#paint6_linear)"/>
<path d="M1266.25 493.395H1263.81V495.768C1263.8 495.912 1263.74 496.05 1263.64 496.151C1263.53 496.253 1263.39 496.312 1263.24 496.316H1262.86C1262.72 496.312 1262.57 496.253 1262.47 496.151C1262.36 496.05 1262.3 495.912 1262.3 495.768V493.395H1259.85C1259.71 493.391 1259.56 493.332 1259.46 493.231C1259.35 493.129 1259.29 492.991 1259.29 492.847V492.482C1259.29 492.338 1259.35 492.201 1259.46 492.099C1259.56 491.997 1259.71 491.938 1259.85 491.935H1262.3V489.561C1262.3 489.417 1262.36 489.28 1262.47 489.178C1262.57 489.076 1262.72 489.017 1262.86 489.014H1263.24C1263.39 489.017 1263.53 489.076 1263.64 489.178C1263.74 489.28 1263.8 489.417 1263.81 489.561V491.935H1266.25C1266.4 491.938 1266.54 491.997 1266.65 492.099C1266.75 492.201 1266.81 492.338 1266.82 492.482V492.847C1266.81 492.991 1266.75 493.129 1266.65 493.231C1266.54 493.332 1266.4 493.391 1266.25 493.395ZM1257.75 486.973C1258.26 487.61 1258.53 488.393 1258.54 489.2C1258.52 489.964 1258.26 490.706 1257.81 491.33C1257.35 491.954 1256.71 492.433 1255.98 492.705C1256.09 493.07 1256.47 493.472 1257.41 494.129C1259.21 495.407 1259.29 497.78 1259.29 497.78V497.963C1259.29 499.861 1256.92 501.431 1254.02 501.431C1251.12 501.431 1248.75 499.861 1248.75 497.963C1248.75 496.137 1250.9 494.64 1253.64 494.494V492.997C1251.54 492.742 1249.88 491.135 1249.88 489.2C1249.88 487.082 1251.8 485.366 1254.21 485.366H1254.4C1254.4 485.366 1258.73 485.038 1259.29 485.001C1259.85 484.965 1259.67 485.731 1259.67 485.731L1257.75 486.973ZM1251.39 497.776C1251.39 498.981 1252.67 499.967 1254.21 499.967C1255.75 499.967 1257.03 498.981 1257.03 497.776C1257.03 496.571 1255.75 495.586 1254.21 495.586C1252.67 495.586 1251.39 496.571 1251.39 497.776ZM1255.98 488.831C1255.68 487.444 1254.62 486.458 1253.64 486.641C1252.67 486.823 1252.14 488.138 1252.44 489.525C1252.74 490.912 1253.8 491.898 1254.77 491.716C1255.75 491.533 1256.28 490.259 1255.98 488.831Z" fill="#D34836"/>
</g>
</g>
<defs>
<filter id="filter0_d" x="980" y="474" width="490" height="337.282" filterUnits="userSpaceOnUse" color-interpolation-filters="sRGB">
<feFlood flood-opacity="0" result="BackgroundImageFix"/>
<feColorMatrix in="SourceAlpha" type="matrix" values="0 0 0 0 0 0 0 0 0 0 0 0 0 0 0 0 0 0 127 0"/>
<feOffset dy="4"/>
<feGaussianBlur stdDeviation="2"/>
<feColorMatrix type="matrix" values="0 0 0 0 0 0 0 0 0 0 0 0 0 0 0 0 0 0 0.25 0"/>
<feBlend mode="normal" in2="BackgroundImageFix" result="effect1_dropShadow"/>
<feBlend mode="normal" in="SourceGraphic" in2="effect1_dropShadow" result="shape"/>
</filter>
<linearGradient id="paint0_linear" x1="1536.45" y1="38.0493" x2="-44.0219" y2="902.199" gradientUnits="userSpaceOnUse">
<stop stop-color="#094EFF" stop-opacity="0.6"/>
<stop offset="1" stop-color="#AD5AEE"/>
</linearGradient>
<linearGradient id="paint1_linear" x1="1379.37" y1="572.779" x2="1009.35" y2="777.086" gradientUnits="userSpaceOnUse">
<stop stop-color="#837BFF"/>
<stop offset="1" stop-color="#9C00C2"/>
</linearGradient>
<linearGradient id="paint2_linear" x1="1011.32" y1="580.07" x2="1011.32" y2="561.073" gradientUnits="userSpaceOnUse">
<stop stop-color="#808080" stop-opacity="0.25"/>
<stop offset="0.54" stop-color="#808080" stop-opacity="0.12"/>
<stop offset="1" stop-color="#808080" stop-opacity="0.1"/>
</linearGradient>
<linearGradient id="paint3_linear" x1="11177" y1="4226.1" x2="11177" y2="3405.9" gradientUnits="userSpaceOnUse">
<stop stop-color="#808080" stop-opacity="0.25"/>
<stop offset="0.54" stop-color="#808080" stop-opacity="0.12"/>
<stop offset="1" stop-color="#808080" stop-opacity="0.1"/>
</linearGradient>
<linearGradient id="paint4_linear" x1="20652.8" y1="5543" x2="20652.8" y2="4043.58" gradientUnits="userSpaceOnUse">
<stop stop-color="#808080" stop-opacity="0.25"/>
<stop offset="0.54" stop-color="#808080" stop-opacity="0.12"/>
<stop offset="1" stop-color="#808080" stop-opacity="0.1"/>
</linearGradient>
<linearGradient id="paint5_linear" x1="15086.2" y1="5186.61" x2="15086.2" y2="4273.85" gradientUnits="userSpaceOnUse">
<stop stop-color="#808080" stop-opacity="0.25"/>
<stop offset="0.54" stop-color="#808080" stop-opacity="0.12"/>
<stop offset="1" stop-color="#808080" stop-opacity="0.1"/>
</linearGradient>
<linearGradient id="paint6_linear" x1="11471.9" y1="2853.65" x2="12338.9" y2="2853.65" gradientUnits="userSpaceOnUse">
<stop stop-color="#808080" stop-opacity="0.25"/>
<stop offset="0.54" stop-color="#808080" stop-opacity="0.12"/>
<stop offset="1" stop-color="#808080" stop-opacity="0.1"/>
</linearGradient>
<clipPath id="clip0">
<rect width="1568" height="873" fill="white"/>
</clipPath>
<clipPath id="clip1">
<rect x="984" y="508" width="482" height="246" fill="white"/>
</clipPath>
</defs>
</svg>
