<svg width="353" height="260" viewBox="0 0 353 260" fill="none" xmlns="http://www.w3.org/2000/svg">
<g filter="url(#filter0_d)">
<path d="M73.229 76.2228C71.5523 77.9686 70.9068 80.4233 70.1847 82.731C64.3715 101.329 50.0465 116.288 33.7329 126.973C26.8243 131.499 18.4135 137.569 19.925 145.684C20.7388 150.042 24.3094 153.25 26.962 156.799C32.5274 164.232 34.3325 174.334 31.6799 183.231C28.6631 193.354 20.2309 202.8 22.8408 213.036C24.4501 219.337 29.9145 223.821 35.1678 227.675C43.3634 233.684 51.8201 239.312 60.5378 244.561C66.3816 248.079 72.5987 251.503 79.4093 251.949C85.4061 252.343 91.2805 250.387 96.9744 248.457C101.949 246.769 107.05 245.013 111.067 241.632C113.689 239.424 115.779 236.575 118.691 234.769C125.532 230.526 134.32 233.215 142.164 235.031C160.675 239.295 180.486 237.738 198.1 230.637C225.119 219.742 245.713 196.862 272.141 184.586C283.505 179.306 295.865 176.03 306.387 169.23C312.315 165.359 317.409 160.629 321.44 155.253C329.395 144.723 333.697 131.297 332.455 118.155C331.213 105.012 324.252 92.3476 313.32 84.9284C301.617 76.9868 286.837 75.5035 273.521 70.7359C259.772 65.8108 247.539 57.3467 233.921 52.0619C222.902 47.7975 210.909 45.7041 198.824 45.9354C186.739 46.1666 174.867 48.7166 164.08 53.3982C149.26 59.8303 134.237 74.8366 117.731 75.976C105.97 76.7636 82.4138 66.6614 73.229 76.2228Z" fill="url(#paint0_linear)"/>
<g clip-path="url(#clip0)">
<path d="M349 161.659H262.3V162.338H349V161.659Z" fill="#3F3D56"/>
<path d="M281.635 155.558L284.153 168.12L289.549 169.478L288.11 154.539L281.635 155.558Z" fill="#A0616A"/>
<path d="M311.854 155.558L314.372 168.12L319.768 169.478L318.329 154.539L311.854 155.558Z" fill="#A0616A"/>
<path d="M287.391 165.744C287.391 165.744 281.635 165.404 281.635 167.102C281.635 168.799 278.757 174.571 278.757 174.571C278.757 174.571 276.598 181.361 282.354 180.682C288.11 180.003 291.708 173.892 291.708 173.892L290.269 167.441L287.391 165.744Z" fill="#2F2E41"/>
<path d="M316.221 166.369C316.221 166.369 312.381 164.04 312.655 165.593C312.93 167.146 313.204 171.287 315.124 171.546C317.043 171.805 322.803 173.358 323.077 173.876C323.351 174.393 329.933 176.464 329.933 173.099C329.933 169.734 325.819 167.146 325.819 167.146L321.157 163.781C321.157 163.781 318.14 163.522 317.592 165.334C317.043 167.146 316.221 166.369 316.221 166.369Z" fill="#2F2E41"/>
<path d="M279.748 84.0782C279.748 84.0782 273.632 75.5902 271.474 78.3064C269.315 81.0226 276.87 86.1154 276.87 86.1154L279.748 84.0782Z" fill="#A0616A"/>
<path d="M281.907 92.2267C281.547 91.8872 275.071 86.1154 275.071 86.1154L279.748 83.0597L285.144 88.1525L281.907 92.2267Z" fill="#575A89"/>
<path d="M282.806 65.9139C282.806 65.9139 278.129 66.2535 278.489 69.9882C278.849 73.7229 281.907 86.1154 281.907 86.1154L283.705 89.5106C283.705 89.5106 290.361 69.9882 282.806 65.9139Z" fill="#575A89"/>
<path d="M283.166 54.0307L284.461 58.105H300.686L301.153 53.6912L302.556 58.105H304.643L305.111 53.6912L306.514 58.105H308.708L306.645 53.4139C305.686 51.1713 304.958 48.8471 304.469 46.4733C303.826 43.5256 302.125 40.8776 299.653 38.9762C297.181 37.0748 294.089 36.0364 290.9 36.0361V36.0361C290.709 36.0361 290.519 36.0398 290.33 36.047C281.236 36.395 275.412 45.3826 278.901 53.3158L281.007 58.105H282.734L283.166 54.0307Z" fill="#2F2E41"/>
<path d="M282.986 89.5106C282.986 89.5106 271.834 98.3381 275.071 110.221C278.309 122.105 279.388 159.452 279.388 159.452L290.541 158.433V111.579L306.01 139.42L308.528 159.452L321.119 157.415L315.363 132.969L304.294 101.809L303.132 92.8189L282.986 89.5106Z" fill="#2F2E41"/>
<path d="M290.721 54.3702C294.893 54.3702 298.275 51.178 298.275 47.2403C298.275 43.3025 294.893 40.1104 290.721 40.1104C286.548 40.1104 283.166 43.3025 283.166 47.2403C283.166 51.178 286.548 54.3702 290.721 54.3702Z" fill="#A0616A"/>
<path d="M286.224 52.1633C286.224 52.1633 289.461 63.3675 287.663 64.7256C285.864 66.0837 300.254 60.3118 300.254 60.3118C300.254 60.3118 294.138 53.8609 294.858 51.1448L286.224 52.1633Z" fill="#A0616A"/>
<path d="M299.534 57.9352C299.534 57.9352 293.774 62.6111 288.2 62.9893C288.2 62.9893 280.827 66.7627 281.187 67.1023C281.547 67.4418 282.626 72.1951 282.626 72.1951C282.626 72.1951 284.425 74.8166 284.425 80.3435C284.425 81.0226 281.907 90.5292 281.907 90.5292L303.132 93.2453C303.132 93.2453 308.888 75.5903 309.248 69.4789C309.607 63.3675 311.766 56.9166 308.528 56.5771C305.29 56.2376 299.534 57.9352 299.534 57.9352Z" fill="#575A89"/>
<path d="M307.809 57.9352C307.809 57.9352 310.327 55.898 311.766 60.6513C313.205 65.4046 318.961 80.3435 317.522 83.3992C316.083 86.4549 307.449 100.036 307.449 100.036L303.132 97.3195L311.766 82.0411L306.729 71.1765L307.809 57.9352Z" fill="#575A89"/>
<path d="M304.931 96.98C304.931 96.98 293.778 103.431 297.376 104.789C300.973 106.147 307.089 99.0171 307.089 99.0171L304.931 96.98Z" fill="#A0616A"/>
<path d="M282.446 39.0918V46.2217H285.324L286.404 43.166L286.673 46.2217H294.678L295.757 43.166L296.027 46.2217H299.355V39.0918H282.446Z" fill="#2F2E41"/>
<path opacity="0.2" d="M282.446 72.7043C282.446 72.7043 281.727 79.4948 282.806 80.8528C283.885 82.2109 282.446 72.7043 282.446 72.7043Z" fill="black"/>
<path d="M220.21 191.197H67.6757V191.876H220.21V191.197Z" fill="#3F3D56"/>
<path d="M210.932 139.627L166.675 181.395C159.909 187.78 150.733 191.367 141.165 191.367C131.597 191.367 122.421 187.78 115.656 181.395C115.058 180.831 114.483 180.251 113.936 179.653C113.035 178.682 112.195 177.662 111.421 176.598C108.583 172.722 106.641 168.326 105.723 163.696C105.518 162.687 105.363 161.669 105.259 160.64C105.147 159.543 105.091 158.437 105.09 157.32C105.087 154.196 105.537 151.086 106.428 148.078C106.734 147.042 107.092 146.024 107.504 145.022C109.32 140.602 112.097 136.59 115.656 133.244L134.963 115.022C135.975 114.067 137.347 113.531 138.778 113.531C140.209 113.531 141.582 114.067 142.594 115.022C143.605 115.977 144.174 117.272 144.174 118.623C144.174 119.973 143.605 121.268 142.594 122.223L123.286 140.445C121.827 141.82 120.55 143.357 119.483 145.022C117.114 148.733 115.869 152.987 115.882 157.32C115.883 158.43 115.963 159.54 116.123 160.64C116.273 161.672 116.497 162.693 116.792 163.696C117.971 167.718 120.247 171.378 123.393 174.31C126.539 177.243 130.445 179.345 134.721 180.408C138.997 181.47 143.494 181.455 147.762 180.365C152.03 179.275 155.921 177.147 159.045 174.194L170.168 163.696L189.955 145.022L203.301 132.426C207.498 128.455 210.081 123.217 210.598 117.629C211.116 112.042 209.535 106.461 206.133 101.862C205.331 100.754 205.026 99.3919 205.283 98.0721C205.539 96.7524 206.337 95.5815 207.503 94.8137C208.669 94.046 210.109 93.7434 211.51 93.9716C212.911 94.1999 214.16 94.9405 214.986 96.0328C219.834 102.594 222.085 110.556 221.344 118.525C220.603 126.494 216.917 133.963 210.932 139.627V139.627Z" fill="#3F3D56"/>
<path d="M280.288 60.0668C280.288 60.3181 280.284 60.5693 280.277 60.8206C280.184 65.265 279.166 69.6489 277.28 73.7224C276.797 74.7667 276.257 75.7866 275.661 76.778C274.045 79.4758 272.047 81.9533 269.722 84.1422L250.414 102.364C249.402 103.317 248.03 103.852 246.601 103.851C245.171 103.85 243.8 103.313 242.789 102.359C241.778 101.405 241.21 100.111 241.209 98.7622C241.208 97.4129 241.774 96.1185 242.784 95.1631L262.092 76.941C262.149 76.8867 262.207 76.8324 262.261 76.778C266.716 72.5102 269.296 66.8093 269.481 60.8206C269.492 60.5693 269.495 60.3181 269.495 60.0668C269.495 59.2927 269.457 58.5254 269.38 57.7649C268.817 52.2563 266.24 47.1043 262.092 43.1927C261.707 42.8294 261.315 42.4797 260.908 42.147C256.293 38.3175 250.358 36.2054 244.212 36.2054C238.067 36.2054 232.132 38.3175 227.516 42.147C227.11 42.4797 226.717 42.8294 226.333 43.1927L182.076 84.9605C177.342 89.4397 174.683 95.508 174.683 101.835C174.683 108.161 177.342 114.23 182.076 118.709C183.088 119.664 183.656 120.959 183.656 122.309C183.656 123.66 183.088 124.955 182.076 125.91C181.064 126.865 179.692 127.401 178.261 127.401C176.83 127.401 175.458 126.865 174.446 125.91C167.69 119.52 163.896 110.862 163.896 101.835C163.896 92.8077 167.69 84.1494 174.446 77.7593L218.702 35.9915C222.553 32.3652 227.221 29.6067 232.359 27.9218C237.497 26.237 242.972 25.6692 248.376 26.2611C253.779 26.8529 258.971 28.589 263.563 31.3398C268.156 34.0905 272.031 37.7849 274.899 42.147C275.552 43.1347 276.149 44.1548 276.687 45.2026C278.71 49.1355 279.905 53.402 280.205 57.7649C280.259 58.5288 280.287 59.2961 280.288 60.0668Z" fill="#3F3D56"/>
<path d="M49.0822 204.834C47.4342 210.584 41.7893 214.144 41.7893 214.144C41.7893 214.144 38.8163 208.383 40.4644 202.634C42.1124 196.884 47.7574 193.323 47.7574 193.323C47.7574 193.323 50.7303 199.084 49.0822 204.834Z" fill="#6C63FF"/>
<path d="M34.0896 204.834C35.7377 210.584 41.3826 214.144 41.3826 214.144C41.3826 214.144 44.3555 208.383 42.7074 202.634C41.0594 196.884 35.4145 193.323 35.4145 193.323C35.4145 193.323 32.4416 199.084 34.0896 204.834Z" fill="#6C63FF"/>
<path d="M36.5113 203.598C41.0336 207.753 41.5859 214.14 41.5859 214.14C41.5859 214.14 34.8063 213.79 30.284 209.636C25.7617 205.481 25.2094 199.094 25.2094 199.094C25.2094 199.094 31.989 199.444 36.5113 203.598Z" fill="#3F3D56"/>
<path d="M46.6605 203.598C42.1383 207.753 41.5859 214.14 41.5859 214.14C41.5859 214.14 48.3656 213.79 52.8878 209.636C57.4101 205.481 57.9625 199.094 57.9625 199.094C57.9625 199.094 51.1828 199.444 46.6605 203.598Z" fill="#3F3D56"/>
<path d="M249.709 59.463C249.709 59.9191 249.661 60.374 249.565 60.8211C249.233 62.3547 248.35 63.733 247.065 64.7229C245.78 65.7128 244.173 66.2534 242.514 66.2534C240.855 66.2534 239.248 65.7128 237.963 64.7229C236.678 63.733 235.795 62.3547 235.463 60.8211C235.246 59.8097 235.275 58.7651 235.546 57.7654C235.982 56.1636 237.023 54.7672 238.473 53.8382C239.923 52.9092 241.682 52.5116 243.421 52.72C245.159 52.9284 246.757 53.7284 247.915 54.9699C249.073 56.2115 249.711 57.8091 249.709 59.463V59.463Z" fill="#3F3D56"/>
<path d="M143.583 162.338C143.583 162.794 143.535 163.249 143.439 163.696C143.107 165.229 142.224 166.608 140.939 167.598C139.654 168.587 138.046 169.128 136.388 169.128C134.729 169.128 133.122 168.587 131.837 167.598C130.552 166.608 129.669 165.229 129.337 163.696C129.12 162.684 129.148 161.64 129.42 160.64C129.856 159.038 130.897 157.642 132.347 156.713C133.797 155.784 135.556 155.386 137.294 155.595C139.033 155.803 140.631 156.603 141.789 157.845C142.947 159.086 143.585 160.684 143.583 162.338V162.338Z" fill="#3F3D56"/>
<path d="M87.1022 213.605H4V214.284H87.1022V213.605Z" fill="#3F3D56"/>
<path d="M212.18 42.1475H227.516C227.11 42.4802 226.717 42.8299 226.333 43.1932L224.203 45.2031H208.942L212.18 42.1475Z" fill="#6C63FF"/>
<path d="M276.687 45.2031H263.995C263.401 44.4998 262.766 43.8287 262.092 43.1932C261.707 42.8299 261.315 42.4802 260.908 42.1475H274.899C275.552 43.1352 276.149 44.1553 276.687 45.2031V45.2031Z" fill="#6C63FF"/>
<path d="M195.631 57.7654H210.892L207.654 60.8211H192.394L195.631 57.7654Z" fill="#6C63FF"/>
<path d="M249.482 57.7654C249.754 58.7651 249.782 59.8096 249.565 60.8211H235.463C235.246 59.8096 235.275 58.7651 235.546 57.7654H249.482Z" fill="#6C63FF"/>
<path d="M280.288 60.0673C280.288 60.3186 280.284 60.5698 280.277 60.8211H269.481C269.492 60.5698 269.495 60.3186 269.495 60.0673C269.495 59.2932 269.457 58.5259 269.38 57.7654H280.205C280.259 58.5293 280.287 59.2966 280.288 60.0673Z" fill="#6C63FF"/>
<path d="M178.723 73.7229H193.984L190.746 76.7786H175.486L178.723 73.7229Z" fill="#6C63FF"/>
<path d="M277.28 73.7229C276.797 74.7673 276.257 75.7872 275.661 76.7786H262.261C263.248 75.8334 264.15 74.8112 264.955 73.7229H277.28Z" fill="#6C63FF"/>
<path d="M119.483 145.022C118.858 146.002 118.308 147.023 117.839 148.078H106.428C106.734 147.042 107.092 146.024 107.504 145.022H119.483Z" fill="#6C63FF"/>
<path d="M205.215 145.022L201.977 148.078H186.717L189.955 145.022H205.215Z" fill="#6C63FF"/>
<path d="M116.792 163.696H105.723C105.518 162.687 105.363 161.669 105.259 160.64H116.123C116.273 161.672 116.497 162.693 116.792 163.696V163.696Z" fill="#6C63FF"/>
<path d="M143.583 162.338C143.583 162.794 143.535 163.249 143.439 163.696H129.337C129.12 162.684 129.148 161.64 129.42 160.64H143.356C143.507 161.195 143.583 161.765 143.583 162.338Z" fill="#6C63FF"/>
<path d="M188.667 160.64L185.429 163.696H170.168L173.406 160.64H188.667Z" fill="#6C63FF"/>
<path d="M132.229 179.653H113.936C113.035 178.682 112.195 177.662 111.421 176.598H126.257C128.092 177.867 130.101 178.895 132.229 179.653V179.653Z" fill="#6C63FF"/>
<path d="M171.758 176.598L168.521 179.653H150.102C152.23 178.895 154.239 177.867 156.073 176.598H171.758Z" fill="#6C63FF"/>
<path d="M117.535 83.6485C114.784 79.2625 109.343 79.058 109.343 79.058C109.343 79.058 104.041 78.4181 100.639 85.0981C97.4686 91.3244 93.093 97.336 99.9346 98.7936L101.17 95.1635L101.936 99.0638C102.91 99.1299 103.887 99.1457 104.863 99.111C112.19 98.8878 119.168 99.1763 118.943 96.695C118.644 93.3964 120.181 87.8687 117.535 83.6485Z" fill="#2F2E41"/>
<path d="M97.7148 180.502L98.0746 189.33H104.55L104.19 179.823L97.7148 180.502Z" fill="#FBBEBE"/>
<path d="M115.343 118.03L114.688 120.084L106.205 146.679L105.27 149.606L105.989 180.842L96.9953 181.86C96.9953 181.86 96.7327 178.58 96.3478 173.739C95.5743 164.151 94.308 148.428 93.5741 139.872C93.3043 136.707 93.11 134.524 93.038 133.988C92.6783 131.272 97.355 117.691 97.355 117.691L106.709 117.012L115.343 118.03Z" fill="#2F2E41"/>
<path d="M99.8733 188.311C99.8733 188.311 97.3551 185.595 96.9953 187.632C96.6356 189.669 92.3186 197.478 92.3186 197.478C92.3186 197.478 79.7273 205.287 90.5198 205.966C90.5198 205.966 95.9161 205.287 97.7148 202.571C97.7148 202.571 100.593 200.873 101.312 200.873C102.032 200.873 106.349 199.515 105.629 197.478C104.91 195.441 105.27 187.972 105.27 187.972L99.8733 188.311Z" fill="#2F2E41"/>
<path d="M99.5135 172.353L102.751 178.125L107.788 175.749L104.55 168.958L99.5135 172.353Z" fill="#FBBEBE"/>
<path opacity="0.2" d="M96.9953 155.717C96.9953 155.717 94.3116 150.183 93.5777 141.627C98.7869 136.134 105.09 130.083 105.09 130.083L112.644 129.744L114.983 129.574C115.53 134.735 110.903 141.383 106.205 146.679C103.35 149.88 100.273 152.9 96.9953 155.717V155.717Z" fill="black"/>
<path d="M106.349 129.913C106.349 129.913 83.3248 148.927 86.5626 156.736C89.8003 164.545 98.794 174.051 98.794 174.051L105.742 170.137L99.1538 155.717C99.1538 155.717 101.916 153.405 105.278 149.98C110.75 144.406 117.81 135.883 117.141 129.574L116.782 118.03L110.666 118.709L106.349 129.913Z" fill="#2F2E41"/>
<path d="M104.19 176.767C104.19 176.767 101.672 176.767 102.032 178.804C102.392 180.842 103.111 184.237 103.111 184.237C103.111 184.237 100.233 200.194 107.068 196.459C113.904 192.725 112.105 182.879 112.105 182.879C112.105 182.879 114.623 176.767 111.385 176.088C108.148 175.409 107.068 174.73 106.709 175.07C106.349 175.409 104.19 176.767 104.19 176.767Z" fill="#2F2E41"/>
<path d="M109.227 93.5848C112.803 93.5848 115.702 90.8486 115.702 87.4734C115.702 84.0982 112.803 81.3621 109.227 81.3621C105.65 81.3621 102.751 84.0982 102.751 87.4734C102.751 90.8486 105.65 93.5848 109.227 93.5848Z" fill="#FBBEBE"/>
<path d="M106.709 89.8501C106.709 89.8501 109.587 96.98 108.507 97.3195C107.428 97.6591 105.27 99.3567 105.27 99.3567L108.867 102.412L118.221 97.6591C118.221 97.6591 113.904 92.2267 114.263 89.8501H106.709Z" fill="#FBBEBE"/>
<path d="M118.221 96.301C118.221 96.301 110.693 99.8032 107.981 97.5428C107.981 97.5428 103.471 97.3196 102.751 99.6962C102.032 102.073 103.471 104.11 101.672 104.789C99.8733 105.468 98.6142 107.335 99.6934 110.391C100.773 113.447 100.593 113.956 99.1538 114.975C97.7148 115.993 96.2758 118.03 96.2758 118.709C96.2758 119.388 94.8368 119.388 95.5563 120.067C96.2758 120.746 94.8368 120.067 96.2758 120.746C97.7148 121.426 101.672 115.314 104.55 118.37C107.428 121.426 116.422 126.518 117.141 123.463C117.861 120.407 120.019 112.938 120.019 112.938C120.019 112.938 127.574 99.6962 125.416 98.3381C123.257 96.9801 118.221 96.301 118.221 96.301Z" fill="#CFCCE0"/>
<path d="M117.141 120.067C117.141 120.067 113.184 119.388 112.105 121.765C111.026 124.142 104.91 129.574 108.867 129.914C112.824 130.253 115.702 124.142 115.702 124.142L119.66 123.463L117.141 120.067Z" fill="#FBBEBE"/>
<path d="M121.099 98.3381L125.803 98.5854C125.803 98.5854 127.934 100.715 128.294 102.752C128.653 104.789 135.489 120.067 131.172 121.765C126.855 123.463 117.501 124.481 117.501 124.481L116.422 119.728L122.538 117.691L118.221 109.203L121.099 98.3381Z" fill="#CFCCE0"/>
<path opacity="0.2" d="M99.6934 155.887L105.611 169.849L98.6142 155.887L104.73 149.775L99.6934 155.887Z" fill="black"/>
<path opacity="0.2" d="M96.1474 171.255L98.6142 174.221H96.8154L96.1474 171.255Z" fill="black"/>
<path d="M110.009 82.7936C112.182 82.7936 113.943 81.1311 113.943 79.0803C113.943 77.0295 112.182 75.3671 110.009 75.3671C107.836 75.3671 106.074 77.0295 106.074 79.0803C106.074 81.1311 107.836 82.7936 110.009 82.7936Z" fill="#2F2E41"/>
<path d="M105.66 78.1032C105.66 77.1861 106.02 76.3015 106.67 75.6197C107.32 74.938 108.214 74.5073 109.181 74.4108C109.043 74.397 108.905 74.39 108.766 74.3899C108.249 74.3894 107.737 74.4851 107.26 74.6715C106.782 74.8579 106.348 75.1314 105.982 75.4762C105.616 75.8211 105.326 76.2306 105.128 76.6813C104.93 77.1321 104.828 77.6152 104.828 78.1032C104.828 78.5911 104.93 79.0742 105.128 79.525C105.326 79.9757 105.616 80.3852 105.982 80.7301C106.348 81.0749 106.782 81.3484 107.26 81.5348C107.737 81.7212 108.249 81.8169 108.766 81.8164C108.905 81.8163 109.043 81.8093 109.181 81.7955C108.214 81.699 107.32 81.2683 106.67 80.5866C106.02 79.9049 105.66 79.0203 105.66 78.1032V78.1032Z" fill="#2F2E41"/>
<path d="M116.319 83.2257L110.943 80.5682L103.519 81.6554L101.983 88.0577L105.807 87.9189L106.875 85.5667V87.8801L108.639 87.816L109.663 84.0714L110.303 88.0577L116.575 87.9369L116.319 83.2257Z" fill="#2F2E41"/>
<path d="M22.1782 70.4375L22.9351 71.5915L24.7183 70.3341L25.8577 72.5694L24.2981 73.6703L28.0826 79.4431L25.6314 81.1699L21.8442 75.3943L20.7318 76.1795L19.3661 74.1062L20.4786 73.3211L19.727 72.1782C19.727 72.1782 18.0867 70.1245 19.8429 68.381L22.294 66.6542L23.5061 68.5039L22.3937 69.2891C22.2206 69.4136 22.1011 69.6033 22.0609 69.8178C22.0206 70.0323 22.0627 70.2547 22.1782 70.4375V70.4375Z" fill="url(#paint1_linear)"/>
<path d="M22.7169 69.5992L23.4738 70.7532L25.257 69.4958L26.3963 71.7312L24.8368 72.8321L28.6213 78.6048L26.1701 80.3316L22.3829 74.5561L21.2705 75.3412L19.9048 73.268L21.0173 72.4828L20.2657 71.34C20.2657 71.34 18.6254 69.2863 20.3816 67.5427L22.8327 65.8159L24.0448 67.6657L22.9324 68.4508C22.7593 68.5753 22.6398 68.7651 22.5996 68.9796C22.5593 69.1941 22.6014 69.4164 22.7169 69.5992Z" fill="#3B5998"/>
<path d="M83.1639 48.604L84.8817 48.2307C84.8817 48.2307 83.4387 49.9851 83.1639 50.0971C83.1382 50.4699 83.1382 50.8442 83.1639 51.217C79.8656 66.5959 67.7033 59.8023 67.7033 59.8023C72.1353 59.9143 72.5133 57.9359 72.5133 57.9359C69.9365 57.5253 69.4212 55.6963 69.4212 55.6963C69.6523 55.8288 69.9204 55.864 70.174 55.7951C70.4275 55.7262 70.6488 55.5581 70.7954 55.323C68.0125 54.5391 68.3904 51.5902 68.3904 51.5902C68.8865 51.9793 69.4661 52.2235 70.0739 52.2995C69.7647 51.8889 67.1536 48.492 68.734 46.7376C68.734 46.7376 70.658 50.4704 75.7085 50.8064L76.052 50.7317C75.9936 50.4628 75.9705 50.1864 75.9833 49.9105C75.9833 48.871 76.3634 47.8741 77.0399 47.1391C77.7164 46.404 78.634 45.9911 79.5908 45.9911C81.9958 45.9911 82.5111 47.4842 82.5111 47.4842L84.229 46.3644C84.1946 46.3644 84.0228 48.2307 83.1639 48.604Z" fill="url(#paint2_linear)"/>
<path d="M83.7026 47.7658L85.4205 47.3925C85.4205 47.3925 83.9775 49.1469 83.7026 49.2589C83.677 49.6316 83.677 50.0059 83.7026 50.3787C80.4044 65.7577 68.242 58.9641 68.242 58.9641C72.6741 59.076 73.052 57.0977 73.052 57.0977C70.4752 56.6871 69.9599 54.858 69.9599 54.858C70.1911 54.9905 70.4591 55.0257 70.7127 54.9568C70.9663 54.888 71.1876 54.7199 71.3342 54.4847C68.5512 53.7009 68.9292 50.752 68.9292 50.752C69.4252 51.1411 70.0049 51.3853 70.6127 51.4612C70.3034 51.0506 67.6923 47.6538 69.2727 45.8994C69.2727 45.8994 71.1967 49.6322 76.2472 49.9681L76.5907 49.8934C76.5323 49.6246 76.5092 49.3481 76.522 49.0722C76.522 48.0327 76.9021 47.0358 77.5786 46.3008C78.2552 45.5658 79.1727 45.1528 80.1295 45.1528C82.5345 45.1528 83.0498 46.6459 83.0498 46.6459L84.7677 45.5261C84.7333 45.5261 84.5615 47.3925 83.7026 47.7658Z" fill="#00ACED"/>
<path d="M141.967 45.0316L143.827 38.5255C143.827 38.5255 143.857 37.0621 142.567 36.7515C141.277 36.4408 140.795 36.5133 140.011 37.0379L138.056 43.865L134.796 42.8986L137.74 32.6269L140.999 33.5933L140.561 35.1189C140.561 35.1189 142.258 33.3172 144.38 34.1283C146.363 34.86 147.5 36.5616 147.059 39.3435L147.123 39.3642L145.222 45.9911L141.967 45.0316ZM134.216 30.1522C133.829 30.0375 133.485 29.8088 133.226 29.495C132.967 29.1812 132.805 28.7964 132.761 28.3892C132.718 27.9821 132.794 27.5709 132.98 27.2076C133.166 26.8443 133.454 26.5453 133.807 26.3484C134.16 26.1514 134.563 26.0654 134.964 26.1012C135.365 26.1369 135.747 26.2929 136.062 26.5493C136.376 26.8058 136.608 27.1511 136.729 27.5418C136.85 27.9324 136.855 28.3508 136.742 28.744C136.667 29.0051 136.542 29.2486 136.375 29.4607C136.207 29.6727 136 29.8492 135.766 29.9799C135.531 30.1107 135.274 30.1932 135.008 30.2228C134.742 30.2523 134.473 30.2284 134.216 30.1522V30.1522ZM132.518 42.2324L129.259 41.266L132.203 30.9944L135.462 31.9608L132.518 42.2324Z" fill="url(#paint3_linear)"/>
<path d="M142.505 44.1933L144.366 37.6873C144.366 37.6873 144.396 36.2238 143.106 35.9132C141.816 35.6026 141.334 35.675 140.55 36.1997L138.594 43.0267L135.335 42.0603L138.279 31.7887L141.538 32.7551L141.1 34.2806C141.1 34.2806 142.797 32.479 144.919 33.2901C146.902 34.0218 148.039 35.7234 147.598 38.5053L147.662 38.526L145.761 45.1528L142.505 44.1933ZM134.755 29.314C134.368 29.1993 134.023 28.9706 133.764 28.6568C133.505 28.343 133.344 27.9581 133.3 27.551C133.256 27.1438 133.332 26.7326 133.518 26.3693C133.704 26.0061 133.992 25.7071 134.346 25.5101C134.699 25.3132 135.102 25.2271 135.503 25.2629C135.904 25.2987 136.286 25.4546 136.6 25.7111C136.914 25.9675 137.147 26.3129 137.268 26.7035C137.389 27.0942 137.393 27.5125 137.28 27.9057C137.206 28.1668 137.081 28.4103 136.913 28.6224C136.746 28.8345 136.539 29.0109 136.304 29.1417C136.07 29.2724 135.812 29.355 135.546 29.3845C135.28 29.4141 135.011 29.3901 134.755 29.314V29.314ZM133.057 41.3942L129.798 40.4277L132.741 30.1561L136.001 31.1225L133.057 41.3942Z" fill="#0077B5"/>
</g>
<path d="M284.081 6.42646C283.785 7.90737 283.569 9.91917 280.579 10.6177C280.579 10.6177 278.829 11.0927 278.263 9.77946C277.913 11.2045 277.563 12.5177 277.347 12.853C276.942 13.5364 276.492 14.1899 276 14.809C276 14.809 276.243 12.2942 276.27 11.7354C276.297 10.8692 277.078 6.9853 277.078 6.9853C277.078 6.9853 276.351 4.24701 278.155 3.91171C278.155 3.91171 279.637 3.54847 279.233 5.58821C279.233 5.58821 278.936 6.92941 278.559 8.4662L278.694 8.66179C278.799 8.87829 278.951 9.06663 279.138 9.21206C279.325 9.35749 279.542 9.45605 279.771 9.50004C280.499 9.58387 282.411 8.24267 282.465 5.86763C282.519 3.49259 282.034 2.82199 280.041 2.23522C278.047 1.64844 276.351 2.65434 275.731 4.47055C275.031 6.53823 275.596 7.04118 276 7.54413L275.731 8.94121C275.731 8.94121 273.792 8.27061 273.845 6.14705C273.899 4.02348 275.058 0.838135 279.233 0.838135C283.408 0.838135 284.377 4.91761 284.081 6.42646Z" fill="url(#paint4_linear)"/>
<path d="M284.62 5.58833C284.324 7.06924 284.108 9.08104 281.118 9.77958C281.118 9.77958 279.367 10.2546 278.802 8.94133C278.452 10.3664 278.101 11.6796 277.886 12.0149C277.481 12.6982 277.031 13.3518 276.539 13.9708C276.539 13.9708 276.782 11.4561 276.808 10.8972C276.835 10.0311 277.617 6.14716 277.617 6.14716C277.617 6.14716 276.889 3.40888 278.694 3.07358C278.694 3.07358 280.175 2.71034 279.771 4.75008C279.771 4.75008 279.475 6.09128 279.098 7.62807L279.233 7.82366C279.338 8.04016 279.49 8.2285 279.677 8.37393C279.864 8.51936 280.08 8.61792 280.31 8.66191C281.037 8.74574 282.95 7.40454 283.004 5.0295C283.058 2.65446 282.573 1.98386 280.579 1.39708C278.586 0.810308 276.889 1.81621 276.27 3.63241C275.569 5.7001 276.135 6.20305 276.539 6.706L276.27 8.10308C276.27 8.10308 274.33 7.43248 274.384 5.30891C274.438 3.18535 275.596 0 279.771 0C283.946 0 284.916 4.07948 284.62 5.58833Z" fill="#BD081C"/>
<path d="M205.488 15.6812H203.737V17.4974C203.734 17.6077 203.691 17.7127 203.616 17.7907C203.54 17.8687 203.439 17.9137 203.333 17.9166H203.064C202.957 17.9137 202.856 17.8687 202.781 17.7907C202.706 17.7127 202.662 17.6077 202.66 17.4974V15.6812H200.909C200.802 15.6784 200.701 15.6333 200.626 15.5553C200.551 15.4773 200.507 15.3724 200.505 15.2621V14.9827C200.507 14.8724 200.551 14.7674 200.626 14.6894C200.701 14.6114 200.802 14.5664 200.909 14.5636H202.66V12.7473C202.662 12.6371 202.706 12.5321 202.781 12.4541C202.856 12.3761 202.957 12.3311 203.064 12.3282H203.333C203.439 12.3311 203.54 12.3761 203.616 12.4541C203.691 12.5321 203.734 12.6371 203.737 12.7473V14.5636H205.488C205.594 14.5664 205.695 14.6114 205.77 14.6894C205.846 14.7674 205.889 14.8724 205.892 14.9827V15.2621C205.889 15.3724 205.846 15.4773 205.77 15.5553C205.695 15.6333 205.594 15.6784 205.488 15.6812V15.6812ZM199.4 10.7663C199.765 11.254 199.964 11.8534 199.966 12.4707C199.951 13.0558 199.769 13.6231 199.443 14.1007C199.117 14.5783 198.661 14.9446 198.134 15.1531C198.215 15.4325 198.484 15.7399 199.158 16.2428C200.451 17.2208 200.505 19.037 200.505 19.037V19.1767C200.505 20.6297 198.808 21.8312 196.734 21.8312C194.66 21.8312 192.963 20.6297 192.963 19.1767C192.963 17.7796 194.498 16.634 196.464 16.5223V15.3767C194.956 15.1811 193.771 13.9516 193.771 12.4707C193.771 10.8501 195.144 9.53685 196.868 9.53685H197.003C197.003 9.53685 200.101 9.28538 200.505 9.25744C200.909 9.2295 200.774 9.81627 200.774 9.81627L199.4 10.7663ZM194.848 19.0342C194.848 19.9563 195.764 20.7107 196.868 20.7107C197.973 20.7107 198.889 19.9563 198.889 19.0342C198.889 18.1121 197.973 17.3577 196.868 17.3577C195.764 17.3577 194.848 18.1121 194.848 19.0342ZM198.134 12.1885C197.919 11.1267 197.165 10.3723 196.464 10.512C195.764 10.6517 195.387 11.6576 195.602 12.7194C195.818 13.7812 196.572 14.5356 197.272 14.3959C197.973 14.2562 198.35 13.281 198.134 12.1885Z" fill="url(#paint5_linear)"/>
<path d="M206.027 14.8431H204.276V16.6593C204.273 16.7696 204.23 16.8745 204.154 16.9525C204.079 17.0305 203.978 17.0756 203.872 17.0784H203.602C203.496 17.0756 203.395 17.0305 203.32 16.9525C203.244 16.8745 203.201 16.7696 203.198 16.6593V14.8431H201.447C201.341 14.8403 201.24 14.7952 201.165 14.7172C201.09 14.6392 201.046 14.5342 201.043 14.424V14.1445C201.046 14.0343 201.09 13.9293 201.165 13.8513C201.24 13.7733 201.341 13.7282 201.447 13.7254H203.198V11.9092C203.201 11.7989 203.244 11.694 203.32 11.616C203.395 11.538 203.496 11.4929 203.602 11.4901H203.872C203.978 11.4929 204.079 11.538 204.154 11.616C204.23 11.694 204.273 11.7989 204.276 11.9092V13.7254H206.027C206.133 13.7282 206.234 13.7733 206.309 13.8513C206.384 13.9293 206.428 14.0343 206.431 14.1445V14.424C206.428 14.5342 206.384 14.6392 206.309 14.7172C206.234 14.7952 206.133 14.8403 206.027 14.8431ZM199.939 9.92815C200.304 10.4159 200.503 11.0152 200.505 11.6326C200.49 12.2176 200.308 12.785 199.982 13.2626C199.656 13.7401 199.2 14.1064 198.673 14.315C198.754 14.5944 199.023 14.9018 199.697 15.4047C200.99 16.3827 201.043 18.1989 201.043 18.1989V18.3386C201.043 19.7916 199.346 20.993 197.272 20.993C195.198 20.993 193.501 19.7916 193.501 18.3386C193.501 16.9415 195.037 15.7959 197.003 15.6841V14.5385C195.495 14.3429 194.309 13.1135 194.309 11.6326C194.309 10.012 195.683 8.69872 197.407 8.69872H197.542C197.542 8.69872 200.639 8.44724 201.043 8.4193C201.447 8.39136 201.313 8.97813 201.313 8.97813L199.939 9.92815ZM195.387 18.1961C195.387 19.1182 196.303 19.8726 197.407 19.8726C198.511 19.8726 199.427 19.1182 199.427 18.1961C199.427 17.274 198.511 16.5196 197.407 16.5196C196.303 16.5196 195.387 17.274 195.387 18.1961ZM198.673 11.3504C198.458 10.2886 197.703 9.53417 197.003 9.67388C196.303 9.81359 195.926 10.8195 196.141 11.8813C196.357 12.9431 197.111 13.6975 197.811 13.5578C198.511 13.4181 198.889 12.4429 198.673 11.3504Z" fill="#D34836"/>
</g>
<defs>
<filter id="filter0_d" x="0" y="0" width="353" height="260" filterUnits="userSpaceOnUse" color-interpolation-filters="sRGB">
<feFlood flood-opacity="0" result="BackgroundImageFix"/>
<feColorMatrix in="SourceAlpha" type="matrix" values="0 0 0 0 0 0 0 0 0 0 0 0 0 0 0 0 0 0 127 0"/>
<feOffset dy="4"/>
<feGaussianBlur stdDeviation="2"/>
<feColorMatrix type="matrix" values="0 0 0 0 0 0 0 0 0 0 0 0 0 0 0 0 0 0 0.25 0"/>
<feBlend mode="normal" in2="BackgroundImageFix" result="effect1_dropShadow"/>
<feBlend mode="normal" in="SourceGraphic" in2="effect1_dropShadow" result="shape"/>
</filter>
<linearGradient id="paint0_linear" x1="286.99" y1="75.5959" x2="14.1631" y2="216.491" gradientUnits="userSpaceOnUse">
<stop stop-color="#837BFF"/>
<stop offset="1" stop-color="#9C00C2"/>
</linearGradient>
<linearGradient id="paint1_linear" x1="23.5573" y1="81.1754" x2="23.5573" y2="66.6374" gradientUnits="userSpaceOnUse">
<stop stop-color="#808080" stop-opacity="0.25"/>
<stop offset="0.54" stop-color="#808080" stop-opacity="0.12"/>
<stop offset="1" stop-color="#808080" stop-opacity="0.1"/>
</linearGradient>
<linearGradient id="paint2_linear" x1="7299.82" y1="2871.48" x2="7299.82" y2="2243.78" gradientUnits="userSpaceOnUse">
<stop stop-color="#808080" stop-opacity="0.25"/>
<stop offset="0.54" stop-color="#808080" stop-opacity="0.12"/>
<stop offset="1" stop-color="#808080" stop-opacity="0.1"/>
</linearGradient>
<linearGradient id="paint3_linear" x1="14082.3" y1="3879.31" x2="14082.3" y2="2731.8" gradientUnits="userSpaceOnUse">
<stop stop-color="#808080" stop-opacity="0.25"/>
<stop offset="0.54" stop-color="#808080" stop-opacity="0.12"/>
<stop offset="1" stop-color="#808080" stop-opacity="0.1"/>
</linearGradient>
<linearGradient id="paint4_linear" x1="10097.9" y1="3606.57" x2="10097.9" y2="2908.03" gradientUnits="userSpaceOnUse">
<stop stop-color="#808080" stop-opacity="0.25"/>
<stop offset="0.54" stop-color="#808080" stop-opacity="0.12"/>
<stop offset="1" stop-color="#808080" stop-opacity="0.1"/>
</linearGradient>
<linearGradient id="paint5_linear" x1="7510.89" y1="1821.15" x2="8131.49" y2="1821.15" gradientUnits="userSpaceOnUse">
<stop stop-color="#808080" stop-opacity="0.25"/>
<stop offset="0.54" stop-color="#808080" stop-opacity="0.12"/>
<stop offset="1" stop-color="#808080" stop-opacity="0.1"/>
</linearGradient>
<clipPath id="clip0">
<rect x="4" y="26.0203" width="345" height="188.264" fill="white"/>
</clipPath>
</defs>
</svg>
