<svg width="482" height="296" viewBox="0 0 482 296" fill="none" xmlns="http://www.w3.org/2000/svg">
<path d="M96.7199 65.5984C94.3775 67.8797 93.4755 71.0871 92.4667 74.1025C84.3451 98.4038 64.3317 117.951 41.5398 131.912C31.8879 137.827 20.1372 145.758 22.2488 156.361C23.3858 162.056 28.3742 166.248 32.0803 170.886C39.8557 180.597 42.3776 193.798 38.6716 205.424C34.4569 218.651 22.6763 230.994 26.3224 244.37C28.5709 252.603 36.2052 258.462 43.5446 263.498C54.9947 271.349 66.8095 278.704 78.9891 285.562C87.1535 290.159 95.8393 294.632 105.354 295.216C113.733 295.73 121.94 293.175 129.895 290.653C136.845 288.447 143.971 286.152 149.583 281.734C153.246 278.849 156.166 275.127 160.235 272.767C169.793 267.223 182.07 270.736 193.03 273.11C218.891 278.681 246.568 276.647 271.177 267.367C308.925 253.131 337.697 223.234 374.621 207.194C390.496 200.295 407.766 196.014 422.466 187.129C430.748 182.07 437.865 175.889 443.497 168.865C454.61 155.106 460.62 137.562 458.885 120.39C457.149 103.217 447.425 86.6683 432.152 76.9738C415.802 66.5967 395.151 64.6585 376.549 58.4288C357.339 51.9933 340.249 40.9335 321.223 34.028C305.828 28.4558 289.073 25.7204 272.189 26.0226C255.305 26.3247 238.719 29.6567 223.648 35.7741C202.942 44.1787 181.954 63.7872 158.893 65.276C142.462 66.3051 109.552 53.1047 96.7199 65.5984Z" fill="url(#paint0_linear)"/>
<path d="M482 177.235H360.872V178.123H482V177.235Z" fill="#3F3D56"/>
<path d="M387.884 169.264L391.402 185.678L398.941 187.453L396.931 167.933L387.884 169.264Z" fill="#A0616A"/>
<path d="M430.103 169.264L433.621 185.678L441.16 187.453L439.15 167.933L430.103 169.264Z" fill="#A0616A"/>
<path d="M395.926 182.573C395.926 182.573 387.884 182.129 387.884 184.348C387.884 186.566 383.863 194.108 383.863 194.108C383.863 194.108 380.847 202.981 388.889 202.093C396.931 201.206 401.957 193.221 401.957 193.221L399.946 184.791L395.926 182.573Z" fill="#2F2E41"/>
<path d="M436.204 183.391C436.204 183.391 430.84 180.347 431.223 182.376C431.606 184.406 431.989 189.817 434.671 190.155C437.353 190.493 445.4 192.523 445.783 193.199C446.166 193.875 455.362 196.581 455.362 192.184C455.362 187.788 449.614 184.406 449.614 184.406L443.101 180.009C443.101 180.009 438.886 179.671 438.12 182.038C437.353 184.406 436.204 183.391 436.204 183.391Z" fill="#2F2E41"/>
<path d="M385.248 75.8628C385.248 75.8628 376.704 64.7718 373.688 68.3209C370.673 71.8701 381.227 78.5247 381.227 78.5247L385.248 75.8628Z" fill="#A0616A"/>
<path d="M388.264 86.5103C387.761 86.0667 378.714 78.5248 378.714 78.5248L385.248 74.532L392.787 81.1866L388.264 86.5103Z" fill="#575A89"/>
<path d="M389.52 52.1279C389.52 52.1279 382.986 52.5716 383.489 57.4516C383.992 62.3317 388.264 78.5247 388.264 78.5247L390.777 82.9611C390.777 82.9611 400.075 57.4516 389.52 52.1279Z" fill="#575A89"/>
<path d="M390.023 36.6005L391.832 41.9242H414.5L415.153 36.1568L417.113 41.9242H420.029L420.682 36.1568L422.642 41.9242H425.708L422.825 35.7944C421.486 32.8641 420.468 29.8272 419.786 26.7254C418.887 22.8736 416.51 19.4136 413.057 16.9291C409.603 14.4446 405.284 13.0877 400.829 13.0874V13.0874C400.562 13.0874 400.296 13.0922 400.031 13.1016C387.326 13.5563 379.19 25.3002 384.064 35.6664L387.007 41.9242H389.42L390.023 36.6005Z" fill="#2F2E41"/>
<path d="M389.772 82.9612C389.772 82.9612 374.191 94.4959 378.714 110.023C383.238 125.551 384.746 174.352 384.746 174.352L400.326 173.021V111.798L421.938 148.177L425.457 174.352L443.048 171.69L435.006 139.747L419.542 99.0308L417.918 87.2841L389.772 82.9612Z" fill="#2F2E41"/>
<path d="M400.578 37.0441C406.407 37.0441 411.132 32.873 411.132 27.7276C411.132 22.5823 406.407 18.4111 400.578 18.4111C394.748 18.4111 390.023 22.5823 390.023 27.7276C390.023 32.873 394.748 37.0441 400.578 37.0441Z" fill="#A0616A"/>
<path d="M394.295 34.1605C394.295 34.1605 398.819 48.8007 396.306 50.5753C393.792 52.3499 413.897 44.808 413.897 44.808C413.897 44.808 405.352 36.3787 406.358 32.8296L394.295 34.1605Z" fill="#A0616A"/>
<path d="M412.892 41.7024C412.892 41.7024 404.844 47.8123 397.057 48.3065C397.057 48.3065 386.756 53.2371 387.259 53.6807C387.761 54.1244 389.269 60.3354 389.269 60.3354C389.269 60.3354 391.782 63.7608 391.782 70.9828C391.782 71.8701 388.264 84.2921 388.264 84.2921L417.918 87.8412C417.918 87.8412 425.959 64.7718 426.462 56.7862C426.965 48.8007 429.98 40.3714 425.457 39.9278C420.933 39.4842 412.892 41.7024 412.892 41.7024Z" fill="#575A89"/>
<path d="M424.452 41.7025C424.452 41.7025 427.97 39.0407 429.98 45.2517C431.991 51.4627 440.032 70.983 438.022 74.9757C436.011 78.9685 423.949 96.7142 423.949 96.7142L417.918 93.1651L429.98 73.2012L422.944 59.0046L424.452 41.7025Z" fill="#575A89"/>
<path d="M420.431 92.7214C420.431 92.7214 404.85 101.151 409.876 102.925C414.902 104.7 423.446 95.3833 423.446 95.3833L420.431 92.7214Z" fill="#A0616A"/>
<path d="M389.018 17.0803V26.3968H393.039L394.546 22.404L394.923 26.3968H406.106L407.614 22.404L407.991 26.3968H412.64V17.0803H389.018Z" fill="#2F2E41"/>
<path opacity="0.2" d="M389.018 61.001C389.018 61.001 388.012 69.8738 389.52 71.6484C391.028 73.423 389.018 61.001 389.018 61.001Z" fill="black"/>
<path d="M302.067 215.832H88.9614V216.72H302.067V215.832Z" fill="#3F3D56"/>
<path d="M289.105 148.447L227.274 203.024C217.821 211.367 205.001 216.054 191.634 216.054C178.267 216.054 165.447 211.367 155.994 203.024C155.16 202.288 154.356 201.529 153.592 200.749C152.333 199.48 151.16 198.146 150.078 196.756C146.113 191.692 143.4 185.948 142.117 179.897C141.831 178.58 141.615 177.249 141.469 175.905C141.313 174.472 141.234 173.025 141.233 171.566C141.228 167.484 141.857 163.421 143.102 159.49C143.529 158.137 144.03 156.806 144.605 155.497C147.143 149.722 151.023 144.479 155.994 140.107L182.969 116.297C184.383 115.049 186.3 114.348 188.299 114.348C190.298 114.348 192.216 115.049 193.629 116.297C195.043 117.544 195.837 119.237 195.837 121.001C195.837 122.766 195.043 124.459 193.629 125.706L166.654 149.517C164.616 151.313 162.832 153.321 161.342 155.497C158.032 160.346 156.292 165.904 156.311 171.566C156.311 173.017 156.424 174.467 156.647 175.905C156.857 177.252 157.17 178.586 157.582 179.897C159.229 185.153 162.409 189.935 166.804 193.767C171.2 197.599 176.657 200.346 182.631 201.734C188.605 203.122 194.887 203.103 200.85 201.678C206.813 200.254 212.248 197.473 216.614 193.615L232.154 179.897L259.798 155.497L278.444 139.038C284.307 133.848 287.916 127.004 288.639 119.704C289.362 112.403 287.153 105.11 282.4 99.1011C281.28 97.6526 280.854 95.8729 281.212 94.1484C281.571 92.424 282.686 90.894 284.315 89.8908C285.944 88.8876 287.955 88.4922 289.913 88.7904C291.87 89.0887 293.615 90.0565 294.769 91.4837C301.543 100.058 304.687 110.46 303.651 120.873C302.616 131.286 297.467 141.046 289.105 148.447V148.447Z" fill="#3F3D56"/>
<path d="M386.002 44.4877C386.002 44.816 385.997 45.1443 385.987 45.4726C385.857 51.2801 384.435 57.0083 381.8 62.331C381.125 63.6957 380.37 65.0284 379.539 66.3238C377.28 69.8489 374.488 73.0862 371.241 75.9464L344.266 99.7567C342.851 101.002 340.935 101.7 338.938 101.699C336.94 101.698 335.025 100.997 333.613 99.7501C332.201 98.5034 331.406 96.813 331.405 95.05C331.404 93.2869 332.195 91.5955 333.605 90.3471L360.58 66.5368C360.661 66.4658 360.741 66.3948 360.816 66.3238C367.041 60.7471 370.645 53.298 370.904 45.4726C370.919 45.1443 370.924 44.816 370.924 44.4877C370.924 43.4762 370.87 42.4736 370.763 41.4798C369.976 34.2818 366.376 27.5499 360.58 22.4387C360.042 21.964 359.495 21.507 358.927 21.0722C352.478 16.0684 344.186 13.3085 335.601 13.3085C327.015 13.3085 318.723 16.0684 312.275 21.0722C311.707 21.507 311.159 21.964 310.621 22.4387L248.79 77.0156C242.176 82.8685 238.462 90.7978 238.462 99.0647C238.462 107.331 242.176 115.261 248.79 121.114C250.204 122.362 250.998 124.054 250.998 125.819C250.998 127.583 250.204 129.276 248.79 130.523C247.377 131.771 245.459 132.472 243.46 132.472C241.461 132.472 239.544 131.771 238.13 130.523C228.692 122.173 223.391 110.86 223.391 99.0647C223.391 87.2694 228.692 75.9559 238.13 67.606L299.961 13.029C305.34 8.29071 311.862 4.68621 319.041 2.48461C326.219 0.283015 333.869 -0.458801 341.417 0.314544C348.966 1.08789 356.22 3.35642 362.636 6.95076C369.053 10.5451 374.466 15.3724 378.473 21.0722C379.386 22.3629 380.219 23.6958 380.971 25.065C383.798 30.204 385.468 35.7789 385.886 41.4798C385.962 42.478 386 43.4806 386.002 44.4877Z" fill="#3F3D56"/>
<path d="M62.9844 233.652C60.6819 241.164 52.7954 245.817 52.7954 245.817C52.7954 245.817 48.6419 238.289 50.9444 230.777C53.2469 223.264 61.1334 218.611 61.1334 218.611C61.1334 218.611 65.2869 226.139 62.9844 233.652Z" fill="#6C63FF"/>
<path d="M42.0382 233.652C44.3407 241.164 52.2273 245.817 52.2273 245.817C52.2273 245.817 56.3807 238.289 54.0782 230.777C51.7757 223.264 43.8892 218.611 43.8892 218.611C43.8892 218.611 39.7357 226.139 42.0382 233.652Z" fill="#6C63FF"/>
<path d="M45.4216 232.037C51.7396 237.466 52.5114 245.811 52.5114 245.811C52.5114 245.811 43.0395 245.355 36.7214 239.926C30.4034 234.497 29.6317 226.152 29.6317 226.152C29.6317 226.152 39.1035 226.608 45.4216 232.037Z" fill="#3F3D56"/>
<path d="M59.6011 232.037C53.283 237.466 52.5113 245.811 52.5113 245.811C52.5113 245.811 61.9832 245.355 68.3013 239.926C74.6193 234.497 75.391 226.152 75.391 226.152C75.391 226.152 65.9191 226.608 59.6011 232.037Z" fill="#3F3D56"/>
<path d="M343.281 43.6988C343.28 44.2947 343.213 44.8892 343.079 45.4734C342.616 47.4773 341.382 49.2783 339.587 50.5717C337.792 51.8652 335.546 52.5716 333.228 52.5716C330.911 52.5716 328.665 51.8652 326.87 50.5717C325.075 49.2783 323.841 47.4773 323.377 45.4734C323.075 44.1517 323.114 42.7868 323.493 41.4806C324.103 39.3875 325.557 37.5628 327.582 36.349C329.608 35.1351 332.066 34.6156 334.495 34.8879C336.924 35.1601 339.156 36.2055 340.774 37.8278C342.392 39.45 343.283 41.5377 343.281 43.6988V43.6988Z" fill="#3F3D56"/>
<path d="M195.011 178.123C195.011 178.719 194.944 179.313 194.81 179.897C194.347 181.901 193.113 183.702 191.318 184.996C189.523 186.289 187.277 186.995 184.959 186.995C182.642 186.995 180.396 186.289 178.601 184.996C176.806 183.702 175.572 181.901 175.108 179.897C174.806 178.576 174.845 177.211 175.224 175.904C175.834 173.811 177.288 171.987 179.313 170.773C181.339 169.559 183.797 169.039 186.226 169.312C188.655 169.584 190.887 170.629 192.505 172.252C194.123 173.874 195.014 175.961 195.011 178.123V178.123Z" fill="#3F3D56"/>
<path d="M116.102 245.113H0V246H116.102V245.113Z" fill="#3F3D56"/>
<path d="M290.849 21.073H312.275C311.707 21.5078 311.159 21.9647 310.621 22.4394L307.646 25.0658H286.325L290.849 21.073Z" fill="#6C63FF"/>
<path d="M380.971 25.0658H363.239C362.41 24.1467 361.522 23.2699 360.58 22.4394C360.042 21.9647 359.495 21.5078 358.927 21.073H378.473C379.386 22.3637 380.219 23.6965 380.971 25.0658V25.0658Z" fill="#6C63FF"/>
<path d="M267.729 41.4807H289.049L284.526 45.4735H263.205L267.729 41.4807Z" fill="#6C63FF"/>
<path d="M342.964 41.4807C343.343 42.787 343.382 44.1519 343.079 45.4735H323.377C323.075 44.1519 323.114 42.787 323.493 41.4807H342.964Z" fill="#6C63FF"/>
<path d="M386.002 44.4886C386.002 44.8169 385.997 45.1452 385.987 45.4735H370.904C370.919 45.1452 370.924 44.8169 370.924 44.4886C370.924 43.4771 370.87 42.4745 370.763 41.4807H385.886C385.962 42.4789 386 43.4815 386.002 44.4886Z" fill="#6C63FF"/>
<path d="M244.106 62.3318H265.427L260.903 66.3246H239.583L244.106 62.3318Z" fill="#6C63FF"/>
<path d="M381.8 62.3318C381.125 63.6964 380.37 65.0291 379.539 66.3246H360.816C362.196 65.0896 363.456 63.7539 364.581 62.3318H381.8Z" fill="#6C63FF"/>
<path d="M161.342 155.497C160.468 156.777 159.7 158.111 159.045 159.49H143.102C143.529 158.136 144.03 156.806 144.605 155.497H161.342Z" fill="#6C63FF"/>
<path d="M281.118 155.497L276.595 159.49H255.274L259.798 155.497H281.118Z" fill="#6C63FF"/>
<path d="M157.582 179.897H142.117C141.831 178.579 141.615 177.249 141.469 175.904H156.647C156.857 177.252 157.17 178.586 157.582 179.897V179.897Z" fill="#6C63FF"/>
<path d="M195.011 178.123C195.011 178.718 194.944 179.313 194.81 179.897H175.108C174.806 178.575 174.845 177.211 175.224 175.904H194.695C194.905 176.629 195.012 177.374 195.011 178.123Z" fill="#6C63FF"/>
<path d="M257.998 175.904L253.475 179.897H232.154L236.678 175.904H257.998Z" fill="#6C63FF"/>
<path d="M179.149 200.748H153.592C152.333 199.479 151.16 198.146 150.078 196.756H170.806C173.369 198.415 176.175 199.758 179.149 200.748V200.748Z" fill="#6C63FF"/>
<path d="M234.376 196.756L229.852 200.748H204.119C207.092 199.758 209.899 198.415 212.462 196.756H234.376Z" fill="#6C63FF"/>
<path d="M158.62 75.3016C154.777 69.5704 147.175 69.3034 147.175 69.3034C147.175 69.3034 139.767 68.4672 135.015 77.1958C130.585 85.3315 124.472 93.1868 134.03 95.0913L135.757 90.348L136.826 95.4444C138.187 95.5308 139.552 95.5514 140.916 95.5061C151.152 95.2144 160.901 95.5914 160.587 92.3491C160.17 88.039 162.317 80.8161 158.62 75.3016Z" fill="#2F2E41"/>
<path d="M130.929 201.857L131.432 213.392H140.479L139.976 200.97L130.929 201.857Z" fill="#FBBEBE"/>
<path d="M155.557 120.227L154.642 122.911L142.791 157.662L141.484 161.486L142.489 202.301L129.924 203.632C129.924 203.632 129.557 199.346 129.019 193.02C127.939 180.492 126.169 159.947 125.144 148.767C124.767 144.632 124.496 141.779 124.395 141.078C123.893 137.529 130.426 119.784 130.426 119.784L143.494 118.896L155.557 120.227Z" fill="#2F2E41"/>
<path d="M133.945 212.061C133.945 212.061 130.426 208.512 129.924 211.174C129.421 213.836 123.39 224.04 123.39 224.04C123.39 224.04 105.799 234.243 120.877 235.131C120.877 235.131 128.416 234.243 130.929 230.694C130.929 230.694 134.95 228.476 135.955 228.476C136.96 228.476 142.992 226.702 141.986 224.04C140.981 221.378 141.484 211.618 141.484 211.618L133.945 212.061Z" fill="#2F2E41"/>
<path d="M133.442 191.21L137.966 198.752L145.002 195.647L140.479 186.774L133.442 191.21Z" fill="#FBBEBE"/>
<path opacity="0.2" d="M129.924 169.472C129.924 169.472 126.174 162.24 125.149 151.06C132.427 143.882 141.233 135.976 141.233 135.976L151.787 135.533L155.054 135.311C155.818 142.054 149.355 150.741 142.791 157.662C138.802 161.845 134.503 165.79 129.924 169.472V169.472Z" fill="black"/>
<path d="M142.992 135.755C142.992 135.755 110.825 160.599 115.348 170.803C119.872 181.006 132.437 193.428 132.437 193.428L142.145 188.314L132.94 169.472C132.94 169.472 136.799 166.451 141.496 161.975C149.14 154.692 159.004 143.555 158.07 135.311L157.567 120.227L149.023 121.115L142.992 135.755Z" fill="#2F2E41"/>
<path d="M139.976 196.977C139.976 196.977 136.458 196.977 136.96 199.639C137.463 202.301 138.468 206.737 138.468 206.737C138.468 206.737 134.447 227.589 143.997 222.709C153.546 217.829 151.033 204.963 151.033 204.963C151.033 204.963 154.552 196.977 150.028 196.09C145.505 195.203 143.997 194.315 143.494 194.759C142.992 195.203 139.976 196.977 139.976 196.977Z" fill="#2F2E41"/>
<path d="M147.013 88.2849C152.009 88.2849 156.059 84.7096 156.059 80.2993C156.059 75.889 152.009 72.3137 147.013 72.3137C142.016 72.3137 137.966 75.889 137.966 80.2993C137.966 84.7096 142.016 88.2849 147.013 88.2849Z" fill="#FBBEBE"/>
<path d="M143.494 83.4048C143.494 83.4048 147.515 92.7213 146.007 93.1649C144.499 93.6086 141.484 95.8268 141.484 95.8268L146.51 99.8196L159.578 93.6086C159.578 93.6086 153.546 86.5103 154.049 83.4048H143.494Z" fill="#FBBEBE"/>
<path d="M159.578 91.834C159.578 91.834 149.061 96.4102 145.272 93.4566C145.272 93.4566 138.971 93.1649 137.966 96.2704C136.96 99.3759 138.971 102.038 136.458 102.925C133.945 103.812 132.186 106.252 133.693 110.245C135.201 114.238 134.95 114.903 132.94 116.234C130.929 117.565 128.919 120.227 128.919 121.114C128.919 122.002 126.908 122.002 127.913 122.889C128.919 123.776 126.908 122.889 128.919 123.776C130.929 124.664 136.458 116.678 140.479 120.671C144.499 124.664 157.065 131.318 158.07 127.325C159.075 123.333 162.091 113.572 162.091 113.572C162.091 113.572 172.645 96.2704 169.63 94.4958C166.614 92.7213 159.578 91.834 159.578 91.834Z" fill="#CFCCE0"/>
<path d="M158.07 122.889C158.07 122.889 152.541 122.002 151.033 125.107C149.526 128.213 140.981 135.311 146.51 135.755C152.039 136.198 156.059 128.213 156.059 128.213L161.588 127.325L158.07 122.889Z" fill="#FBBEBE"/>
<path d="M163.599 94.4958L170.172 94.819C170.172 94.819 173.148 97.6013 173.651 100.263C174.153 102.925 183.703 122.889 177.672 125.107C171.64 127.325 158.572 128.656 158.572 128.656L157.065 122.445L165.609 119.783L159.578 108.692L163.599 94.4958Z" fill="#CFCCE0"/>
<path opacity="0.2" d="M133.693 169.693L141.961 187.937L132.186 169.693L140.73 161.708L133.693 169.693Z" fill="black"/>
<path opacity="0.2" d="M128.739 189.775L132.186 193.65H129.673L128.739 189.775Z" fill="black"/>
<path d="M148.105 74.1843C151.141 74.1843 153.602 72.0119 153.602 69.3322C153.602 66.6526 151.141 64.4802 148.105 64.4802C145.069 64.4802 142.608 66.6526 142.608 69.3322C142.608 72.0119 145.069 74.1843 148.105 74.1843Z" fill="#2F2E41"/>
<path d="M142.03 68.0554C142.03 66.8571 142.532 65.7012 143.44 64.8103C144.348 63.9195 145.598 63.3568 146.948 63.2307C146.756 63.2127 146.563 63.2036 146.369 63.2034C145.647 63.2028 144.932 63.3278 144.264 63.5714C143.597 63.815 142.99 64.1722 142.479 64.6229C141.968 65.0735 141.563 65.6086 141.286 66.1975C141.01 66.7865 140.867 67.4178 140.867 68.0554C140.867 68.693 141.01 69.3243 141.286 69.9133C141.563 70.5022 141.968 71.0373 142.479 71.4879C142.99 71.9386 143.597 72.2959 144.264 72.5394C144.932 72.783 145.647 72.908 146.369 72.9074C146.563 72.9072 146.756 72.8981 146.948 72.8801C145.598 72.754 144.348 72.1913 143.44 71.3005C142.532 70.4097 142.03 69.2537 142.03 68.0554V68.0554Z" fill="#2F2E41"/>
<path d="M156.921 74.749L149.41 71.2766L139.038 72.6972L136.892 81.0629L142.234 80.8815L143.726 77.8079V80.8309L146.191 80.7471L147.622 75.8541L148.516 81.0629L157.278 80.905L156.921 74.749Z" fill="#2F2E41"/>
<defs>
<linearGradient id="paint0_linear" x1="395.366" y1="64.7792" x2="25.3543" y2="269.086" gradientUnits="userSpaceOnUse">
<stop stop-color="#837BFF"/>
<stop offset="1" stop-color="#9C00C2"/>
</linearGradient>
</defs>
</svg>
