<svg width="490" height="338" viewBox="0 0 490 338" fill="none" xmlns="http://www.w3.org/2000/svg">
<g filter="url(#filter0_d)">
<path d="M100.72 99.5984C98.3775 101.88 97.4755 105.087 96.4667 108.103C88.3451 132.404 68.3317 151.951 45.5398 165.912C35.8879 171.827 24.1372 179.758 26.2488 190.361C27.3858 196.056 32.3742 200.248 36.0803 204.886C43.8557 214.597 46.3776 227.798 42.6716 239.424C38.4569 252.651 26.6763 264.994 30.3224 278.37C32.5709 286.603 40.2052 292.462 47.5446 297.498C58.9947 305.349 70.8095 312.704 82.9891 319.562C91.1535 324.159 99.8393 328.632 109.354 329.216C117.733 329.73 125.94 327.175 133.895 324.653C140.845 322.447 147.971 320.152 153.583 315.734C157.246 312.849 160.166 309.127 164.235 306.767C173.793 301.223 186.07 304.736 197.03 307.11C222.891 312.681 250.568 310.647 275.177 301.367C312.925 287.131 341.697 257.234 378.621 241.194C394.496 234.295 411.766 230.014 426.466 221.129C434.748 216.07 441.865 209.889 447.497 202.865C458.61 189.106 464.62 171.562 462.885 154.39C461.149 137.217 451.425 120.668 436.152 110.974C419.802 100.597 399.151 98.6585 380.549 92.4288C361.339 85.9933 344.249 74.9335 325.223 68.028C309.828 62.4558 293.073 59.7204 276.189 60.0226C259.305 60.3247 242.719 63.6567 227.648 69.7741C206.942 78.1787 185.954 97.7872 162.893 99.276C146.462 100.305 113.552 87.1047 100.72 99.5984Z" fill="url(#paint0_linear)"/>
<g clip-path="url(#clip0)">
<path d="M486 211.235H364.872V212.123H486V211.235Z" fill="#3F3D56"/>
<path d="M391.884 203.264L395.402 219.678L402.941 221.453L400.931 201.933L391.884 203.264Z" fill="#A0616A"/>
<path d="M434.103 203.264L437.621 219.678L445.16 221.453L443.15 201.933L434.103 203.264Z" fill="#A0616A"/>
<path d="M399.926 216.573C399.926 216.573 391.884 216.129 391.884 218.348C391.884 220.566 387.863 228.108 387.863 228.108C387.863 228.108 384.847 236.981 392.889 236.093C400.931 235.206 405.957 227.221 405.957 227.221L403.946 218.791L399.926 216.573Z" fill="#2F2E41"/>
<path d="M440.204 217.391C440.204 217.391 434.84 214.347 435.223 216.376C435.606 218.406 435.989 223.817 438.671 224.155C441.353 224.493 449.4 226.523 449.783 227.199C450.166 227.875 459.362 230.581 459.362 226.184C459.362 221.788 453.614 218.406 453.614 218.406L447.101 214.009C447.101 214.009 442.886 213.671 442.12 216.038C441.353 218.406 440.204 217.391 440.204 217.391Z" fill="#2F2E41"/>
<path d="M389.248 109.863C389.248 109.863 380.704 98.7718 377.688 102.321C374.673 105.87 385.227 112.525 385.227 112.525L389.248 109.863Z" fill="#A0616A"/>
<path d="M392.264 120.51C391.761 120.067 382.714 112.525 382.714 112.525L389.248 108.532L396.787 115.187L392.264 120.51Z" fill="#575A89"/>
<path d="M393.52 86.1279C393.52 86.1279 386.986 86.5716 387.489 91.4516C387.992 96.3317 392.264 112.525 392.264 112.525L394.777 116.961C394.777 116.961 404.075 91.4516 393.52 86.1279Z" fill="#575A89"/>
<path d="M394.023 70.6005L395.832 75.9242H418.5L419.153 70.1568L421.113 75.9242H424.029L424.682 70.1568L426.642 75.9242H429.708L426.825 69.7944C425.486 66.8641 424.468 63.8272 423.786 60.7254C422.887 56.8736 420.51 53.4136 417.057 50.9291C413.603 48.4446 409.284 47.0877 404.829 47.0874V47.0874C404.562 47.0874 404.296 47.0922 404.031 47.1016C391.326 47.5563 383.19 59.3002 388.064 69.6664L391.007 75.9242H393.42L394.023 70.6005Z" fill="#2F2E41"/>
<path d="M393.772 116.961C393.772 116.961 378.191 128.496 382.714 144.023C387.238 159.551 388.746 208.352 388.746 208.352L404.326 207.021V145.798L425.938 182.177L429.457 208.352L447.048 205.69L439.006 173.747L423.542 133.031L421.918 121.284L393.772 116.961Z" fill="#2F2E41"/>
<path d="M404.578 71.0441C410.407 71.0441 415.132 66.873 415.132 61.7276C415.132 56.5823 410.407 52.4111 404.578 52.4111C398.748 52.4111 394.023 56.5823 394.023 61.7276C394.023 66.873 398.748 71.0441 404.578 71.0441Z" fill="#A0616A"/>
<path d="M398.295 68.1605C398.295 68.1605 402.819 82.8007 400.306 84.5753C397.792 86.3499 417.897 78.808 417.897 78.808C417.897 78.808 409.352 70.3787 410.358 66.8296L398.295 68.1605Z" fill="#A0616A"/>
<path d="M416.892 75.7024C416.892 75.7024 408.844 81.8123 401.057 82.3065C401.057 82.3065 390.756 87.2371 391.259 87.6807C391.761 88.1244 393.269 94.3354 393.269 94.3354C393.269 94.3354 395.782 97.7608 395.782 104.983C395.782 105.87 392.264 118.292 392.264 118.292L421.918 121.841C421.918 121.841 429.959 98.7718 430.462 90.7862C430.965 82.8007 433.98 74.3714 429.457 73.9278C424.933 73.4842 416.892 75.7024 416.892 75.7024Z" fill="#575A89"/>
<path d="M428.452 75.7025C428.452 75.7025 431.97 73.0407 433.98 79.2517C435.991 85.4627 444.032 104.983 442.022 108.976C440.011 112.969 427.949 130.714 427.949 130.714L421.918 127.165L433.98 107.201L426.944 93.0046L428.452 75.7025Z" fill="#575A89"/>
<path d="M424.431 126.721C424.431 126.721 408.85 135.151 413.876 136.925C418.902 138.7 427.446 129.383 427.446 129.383L424.431 126.721Z" fill="#A0616A"/>
<path d="M393.018 51.0803V60.3968H397.039L398.546 56.404L398.923 60.3968H410.106L411.614 56.404L411.991 60.3968H416.64V51.0803H393.018Z" fill="#2F2E41"/>
<path opacity="0.2" d="M393.018 95.001C393.018 95.001 392.012 103.874 393.52 105.648C395.028 107.423 393.018 95.001 393.018 95.001Z" fill="black"/>
<path d="M306.067 249.832H92.9614V250.72H306.067V249.832Z" fill="#3F3D56"/>
<path d="M293.105 182.447L231.274 237.024C221.821 245.367 209.001 250.054 195.634 250.054C182.267 250.054 169.447 245.367 159.994 237.024C159.16 236.288 158.356 235.529 157.592 234.749C156.333 233.48 155.16 232.146 154.078 230.756C150.113 225.692 147.4 219.948 146.117 213.897C145.831 212.58 145.615 211.249 145.469 209.905C145.313 208.472 145.234 207.025 145.233 205.566C145.228 201.484 145.857 197.421 147.102 193.49C147.529 192.137 148.03 190.806 148.605 189.497C151.143 183.722 155.023 178.479 159.994 174.107L186.969 150.297C188.383 149.049 190.3 148.348 192.299 148.348C194.298 148.348 196.216 149.049 197.629 150.297C199.043 151.544 199.837 153.237 199.837 155.001C199.837 156.766 199.043 158.459 197.629 159.706L170.654 183.517C168.616 185.313 166.832 187.321 165.342 189.497C162.032 194.346 160.292 199.904 160.311 205.566C160.311 207.017 160.424 208.467 160.647 209.905C160.857 211.252 161.17 212.586 161.582 213.897C163.229 219.153 166.409 223.935 170.804 227.767C175.2 231.599 180.657 234.346 186.631 235.734C192.605 237.122 198.887 237.103 204.85 235.678C210.813 234.254 216.248 231.473 220.614 227.615L236.154 213.897L263.798 189.497L282.444 173.038C288.307 167.848 291.916 161.004 292.639 153.704C293.362 146.403 291.153 139.11 286.4 133.101C285.28 131.653 284.854 129.873 285.212 128.148C285.571 126.424 286.686 124.894 288.315 123.891C289.944 122.888 291.955 122.492 293.913 122.79C295.87 123.089 297.615 124.056 298.769 125.484C305.543 134.058 308.687 144.46 307.651 154.873C306.616 165.286 301.467 175.046 293.105 182.447V182.447Z" fill="#3F3D56"/>
<path d="M390.002 78.4877C390.002 78.816 389.997 79.1443 389.987 79.4726C389.857 85.2801 388.435 91.0083 385.8 96.331C385.125 97.6957 384.37 99.0284 383.539 100.324C381.28 103.849 378.488 107.086 375.241 109.946L348.266 133.757C346.851 135.002 344.935 135.7 342.938 135.699C340.94 135.698 339.025 134.997 337.613 133.75C336.201 132.503 335.406 130.813 335.405 129.05C335.404 127.287 336.195 125.595 337.605 124.347L364.58 100.537C364.661 100.466 364.741 100.395 364.816 100.324C371.041 94.7471 374.645 87.298 374.904 79.4726C374.919 79.1443 374.924 78.816 374.924 78.4877C374.924 77.4762 374.87 76.4736 374.763 75.4798C373.976 68.2818 370.376 61.5499 364.58 56.4387C364.042 55.964 363.495 55.507 362.927 55.0722C356.478 50.0684 348.186 47.3085 339.601 47.3085C331.015 47.3085 322.723 50.0684 316.275 55.0722C315.707 55.507 315.159 55.964 314.621 56.4387L252.79 111.016C246.176 116.868 242.462 124.798 242.462 133.065C242.462 141.331 246.176 149.261 252.79 155.114C254.204 156.362 254.998 158.054 254.998 159.819C254.998 161.583 254.204 163.276 252.79 164.523C251.377 165.771 249.459 166.472 247.46 166.472C245.461 166.472 243.544 165.771 242.13 164.523C232.692 156.173 227.391 144.86 227.391 133.065C227.391 121.269 232.692 109.956 242.13 101.606L303.961 47.029C309.34 42.2907 315.862 38.6862 323.041 36.4846C330.219 34.283 337.869 33.5412 345.417 34.3145C352.966 35.0879 360.22 37.3564 366.636 40.9508C373.053 44.5451 378.466 49.3724 382.473 55.0722C383.386 56.3629 384.219 57.6958 384.971 59.065C387.798 64.204 389.468 69.7789 389.886 75.4798C389.962 76.478 390 77.4806 390.002 78.4877Z" fill="#3F3D56"/>
<path d="M66.9844 267.652C64.6819 275.164 56.7954 279.817 56.7954 279.817C56.7954 279.817 52.6419 272.289 54.9444 264.777C57.2469 257.264 65.1334 252.611 65.1334 252.611C65.1334 252.611 69.2869 260.139 66.9844 267.652Z" fill="#6C63FF"/>
<path d="M46.0382 267.652C48.3407 275.164 56.2273 279.817 56.2273 279.817C56.2273 279.817 60.3807 272.289 58.0782 264.777C55.7757 257.264 47.8892 252.611 47.8892 252.611C47.8892 252.611 43.7357 260.139 46.0382 267.652Z" fill="#6C63FF"/>
<path d="M49.4216 266.037C55.7396 271.466 56.5114 279.811 56.5114 279.811C56.5114 279.811 47.0395 279.355 40.7214 273.926C34.4034 268.497 33.6317 260.152 33.6317 260.152C33.6317 260.152 43.1035 260.608 49.4216 266.037Z" fill="#3F3D56"/>
<path d="M63.6011 266.037C57.283 271.466 56.5113 279.811 56.5113 279.811C56.5113 279.811 65.9832 279.355 72.3013 273.926C78.6193 268.497 79.391 260.152 79.391 260.152C79.391 260.152 69.9191 260.608 63.6011 266.037Z" fill="#3F3D56"/>
<path d="M347.281 77.6988C347.28 78.2947 347.213 78.8892 347.079 79.4734C346.616 81.4773 345.382 83.2783 343.587 84.5717C341.792 85.8652 339.546 86.5716 337.228 86.5716C334.911 86.5716 332.665 85.8652 330.87 84.5717C329.075 83.2783 327.841 81.4773 327.377 79.4734C327.075 78.1517 327.114 76.7868 327.493 75.4806C328.103 73.3875 329.557 71.5628 331.582 70.349C333.608 69.1351 336.066 68.6156 338.495 68.8879C340.924 69.1601 343.156 70.2055 344.774 71.8278C346.392 73.45 347.283 75.5377 347.281 77.6988V77.6988Z" fill="#3F3D56"/>
<path d="M199.011 212.123C199.011 212.719 198.944 213.313 198.81 213.897C198.347 215.901 197.113 217.702 195.318 218.996C193.523 220.289 191.277 220.995 188.959 220.995C186.642 220.995 184.396 220.289 182.601 218.996C180.806 217.702 179.572 215.901 179.108 213.897C178.806 212.576 178.845 211.211 179.224 209.904C179.834 207.811 181.288 205.987 183.313 204.773C185.339 203.559 187.797 203.039 190.226 203.312C192.655 203.584 194.887 204.629 196.505 206.252C198.123 207.874 199.014 209.961 199.011 212.123V212.123Z" fill="#3F3D56"/>
<path d="M120.102 279.113H4V280H120.102V279.113Z" fill="#3F3D56"/>
<path d="M294.849 55.073H316.275C315.707 55.5078 315.159 55.9647 314.621 56.4394L311.646 59.0658H290.325L294.849 55.073Z" fill="#6C63FF"/>
<path d="M384.971 59.0658H367.239C366.41 58.1467 365.522 57.2699 364.58 56.4394C364.042 55.9647 363.495 55.5078 362.927 55.073H382.473C383.386 56.3637 384.219 57.6965 384.971 59.0658V59.0658Z" fill="#6C63FF"/>
<path d="M271.729 75.4807H293.049L288.526 79.4735H267.205L271.729 75.4807Z" fill="#6C63FF"/>
<path d="M346.964 75.4807C347.343 76.787 347.382 78.1519 347.079 79.4735H327.377C327.075 78.1519 327.114 76.787 327.493 75.4807H346.964Z" fill="#6C63FF"/>
<path d="M390.002 78.4886C390.002 78.8169 389.997 79.1452 389.987 79.4735H374.904C374.919 79.1452 374.924 78.8169 374.924 78.4886C374.924 77.4771 374.87 76.4745 374.763 75.4807H389.886C389.962 76.4789 390 77.4815 390.002 78.4886Z" fill="#6C63FF"/>
<path d="M248.106 96.3318H269.427L264.903 100.325H243.583L248.106 96.3318Z" fill="#6C63FF"/>
<path d="M385.8 96.3318C385.125 97.6964 384.37 99.0291 383.539 100.325H364.816C366.196 99.0896 367.456 97.7539 368.581 96.3318H385.8Z" fill="#6C63FF"/>
<path d="M165.342 189.497C164.468 190.777 163.7 192.111 163.045 193.49H147.102C147.529 192.136 148.03 190.806 148.605 189.497H165.342Z" fill="#6C63FF"/>
<path d="M285.118 189.497L280.595 193.49H259.274L263.798 189.497H285.118Z" fill="#6C63FF"/>
<path d="M161.582 213.897H146.117C145.831 212.579 145.615 211.249 145.469 209.904H160.647C160.857 211.252 161.17 212.586 161.582 213.897V213.897Z" fill="#6C63FF"/>
<path d="M199.011 212.123C199.011 212.718 198.944 213.313 198.81 213.897H179.108C178.806 212.575 178.845 211.211 179.224 209.904H198.695C198.905 210.629 199.012 211.374 199.011 212.123Z" fill="#6C63FF"/>
<path d="M261.998 209.904L257.475 213.897H236.154L240.678 209.904H261.998Z" fill="#6C63FF"/>
<path d="M183.149 234.748H157.592C156.333 233.479 155.16 232.146 154.078 230.756H174.806C177.369 232.415 180.175 233.758 183.149 234.748V234.748Z" fill="#6C63FF"/>
<path d="M238.376 230.756L233.852 234.748H208.119C211.092 233.758 213.899 232.415 216.462 230.756H238.376Z" fill="#6C63FF"/>
<path d="M162.62 109.302C158.777 103.57 151.175 103.303 151.175 103.303C151.175 103.303 143.767 102.467 139.015 111.196C134.585 119.332 128.472 127.187 138.03 129.091L139.757 124.348L140.826 129.444C142.187 129.531 143.552 129.551 144.916 129.506C155.152 129.214 164.901 129.591 164.587 126.349C164.17 122.039 166.317 114.816 162.62 109.302Z" fill="#2F2E41"/>
<path d="M134.929 235.857L135.432 247.392H144.479L143.976 234.97L134.929 235.857Z" fill="#FBBEBE"/>
<path d="M159.557 154.227L158.642 156.911L146.791 191.662L145.484 195.486L146.489 236.301L133.924 237.632C133.924 237.632 133.557 233.346 133.019 227.02C131.939 214.492 130.169 193.947 129.144 182.767C128.767 178.632 128.496 175.779 128.395 175.078C127.893 171.529 134.426 153.784 134.426 153.784L147.494 152.896L159.557 154.227Z" fill="#2F2E41"/>
<path d="M137.945 246.061C137.945 246.061 134.426 242.512 133.924 245.174C133.421 247.836 127.39 258.04 127.39 258.04C127.39 258.04 109.799 268.243 124.877 269.131C124.877 269.131 132.416 268.243 134.929 264.694C134.929 264.694 138.95 262.476 139.955 262.476C140.96 262.476 146.992 260.702 145.986 258.04C144.981 255.378 145.484 245.618 145.484 245.618L137.945 246.061Z" fill="#2F2E41"/>
<path d="M137.442 225.21L141.966 232.752L149.002 229.647L144.479 220.774L137.442 225.21Z" fill="#FBBEBE"/>
<path opacity="0.2" d="M133.924 203.472C133.924 203.472 130.174 196.24 129.149 185.06C136.427 177.882 145.233 169.976 145.233 169.976L155.787 169.533L159.054 169.311C159.818 176.054 153.355 184.741 146.791 191.662C142.802 195.845 138.503 199.79 133.924 203.472V203.472Z" fill="black"/>
<path d="M146.992 169.755C146.992 169.755 114.825 194.599 119.348 204.803C123.872 215.006 136.437 227.428 136.437 227.428L146.145 222.314L136.94 203.472C136.94 203.472 140.799 200.451 145.496 195.975C153.14 188.692 163.004 177.555 162.07 169.311L161.567 154.227L153.023 155.115L146.992 169.755Z" fill="#2F2E41"/>
<path d="M143.976 230.977C143.976 230.977 140.458 230.977 140.96 233.639C141.463 236.301 142.468 240.737 142.468 240.737C142.468 240.737 138.447 261.589 147.997 256.709C157.546 251.829 155.033 238.963 155.033 238.963C155.033 238.963 158.552 230.977 154.028 230.09C149.505 229.203 147.997 228.315 147.494 228.759C146.992 229.203 143.976 230.977 143.976 230.977Z" fill="#2F2E41"/>
<path d="M151.013 122.285C156.009 122.285 160.059 118.71 160.059 114.299C160.059 109.889 156.009 106.314 151.013 106.314C146.016 106.314 141.966 109.889 141.966 114.299C141.966 118.71 146.016 122.285 151.013 122.285Z" fill="#FBBEBE"/>
<path d="M147.494 117.405C147.494 117.405 151.515 126.721 150.007 127.165C148.499 127.609 145.484 129.827 145.484 129.827L150.51 133.82L163.578 127.609C163.578 127.609 157.546 120.51 158.049 117.405H147.494Z" fill="#FBBEBE"/>
<path d="M163.578 125.834C163.578 125.834 153.061 130.41 149.272 127.457C149.272 127.457 142.971 127.165 141.966 130.27C140.96 133.376 142.971 136.038 140.458 136.925C137.945 137.812 136.186 140.252 137.693 144.245C139.201 148.238 138.95 148.903 136.94 150.234C134.929 151.565 132.919 154.227 132.919 155.114C132.919 156.002 130.908 156.002 131.913 156.889C132.919 157.776 130.908 156.889 132.919 157.776C134.929 158.664 140.458 150.678 144.479 154.671C148.499 158.664 161.065 165.318 162.07 161.325C163.075 157.333 166.091 147.572 166.091 147.572C166.091 147.572 176.645 130.27 173.63 128.496C170.614 126.721 163.578 125.834 163.578 125.834Z" fill="#CFCCE0"/>
<path d="M162.07 156.889C162.07 156.889 156.541 156.002 155.033 159.107C153.526 162.213 144.981 169.311 150.51 169.755C156.039 170.198 160.059 162.213 160.059 162.213L165.588 161.325L162.07 156.889Z" fill="#FBBEBE"/>
<path d="M167.599 128.496L174.172 128.819C174.172 128.819 177.148 131.601 177.651 134.263C178.153 136.925 187.703 156.889 181.672 159.107C175.64 161.325 162.572 162.656 162.572 162.656L161.065 156.445L169.609 153.783L163.578 142.692L167.599 128.496Z" fill="#CFCCE0"/>
<path opacity="0.2" d="M137.693 203.693L145.961 221.937L136.186 203.693L144.73 195.708L137.693 203.693Z" fill="black"/>
<path opacity="0.2" d="M132.739 223.775L136.186 227.65H133.673L132.739 223.775Z" fill="black"/>
<path d="M152.105 108.184C155.141 108.184 157.602 106.012 157.602 103.332C157.602 100.653 155.141 98.4802 152.105 98.4802C149.069 98.4802 146.608 100.653 146.608 103.332C146.608 106.012 149.069 108.184 152.105 108.184Z" fill="#2F2E41"/>
<path d="M146.03 102.055C146.03 100.857 146.532 99.7012 147.44 98.8103C148.348 97.9195 149.598 97.3568 150.948 97.2307C150.756 97.2127 150.563 97.2036 150.369 97.2034C149.647 97.2028 148.932 97.3278 148.264 97.5714C147.597 97.815 146.99 98.1722 146.479 98.6229C145.968 99.0735 145.563 99.6086 145.286 100.198C145.01 100.787 144.867 101.418 144.867 102.055C144.867 102.693 145.01 103.324 145.286 103.913C145.563 104.502 145.968 105.037 146.479 105.488C146.99 105.939 147.597 106.296 148.264 106.539C148.932 106.783 149.647 106.908 150.369 106.907C150.563 106.907 150.756 106.898 150.948 106.88C149.598 106.754 148.348 106.191 147.44 105.3C146.532 104.41 146.03 103.254 146.03 102.055V102.055Z" fill="#2F2E41"/>
<path d="M160.921 108.749L153.41 105.277L143.038 106.697L140.892 115.063L146.234 114.881L147.726 111.808V114.831L150.191 114.747L151.622 109.854L152.516 115.063L161.278 114.905L160.921 108.749Z" fill="#2F2E41"/>
<path d="M29.3968 92.0388L30.4543 93.5466L32.9455 91.9037L34.5373 94.8245L32.3584 96.263L37.6458 103.806L34.2212 106.063L28.9302 98.5158L27.376 99.5417L25.468 96.8326L27.0222 95.8067L25.9723 94.3134C25.9723 94.3134 23.6805 91.6298 26.1341 89.3516L29.5586 87.0952L31.2521 89.5122L29.6979 90.5382C29.456 90.7009 29.2891 90.9488 29.2329 91.2291C29.1766 91.5094 29.2355 91.7999 29.3968 92.0388V92.0388Z" fill="url(#paint1_linear)"/>
<path d="M30.1494 90.9435L31.2069 92.4514L33.6981 90.8085L35.29 93.7293L33.1111 95.1678L38.3984 102.711L34.9739 104.967L29.6828 97.4205L28.1286 98.4465L26.2206 95.7374L27.7748 94.7114L26.7249 93.2182C26.7249 93.2182 24.4331 90.5346 26.8867 88.2564L30.3112 86L32.0047 88.417L30.4505 89.443C30.2086 89.6056 30.0417 89.8536 29.9855 90.1339C29.9293 90.4142 29.9881 90.7047 30.1494 90.9435Z" fill="#3B5998"/>
<path d="M114.6 63.5095L117 63.0217C117 63.0217 114.984 65.3142 114.6 65.4605C114.564 65.9475 114.564 66.4367 114.6 66.9237C109.992 87.0191 93 78.142 93 78.142C99.192 78.2883 99.72 75.7032 99.72 75.7032C96.12 75.1667 95.4 72.7767 95.4 72.7767C95.723 72.9499 96.0975 72.9959 96.4518 72.9059C96.806 72.8159 97.1152 72.5962 97.32 72.289C93.432 71.2647 93.96 67.4115 93.96 67.4115C94.653 67.9199 95.4628 68.239 96.312 68.3382C95.88 67.8017 92.232 63.3631 94.44 61.0707C94.44 61.0707 97.128 65.9482 104.184 66.3872L104.664 66.2897C104.582 65.9384 104.55 65.5771 104.568 65.2166C104.568 63.8583 105.099 62.5557 106.044 61.5952C106.989 60.6348 108.271 60.0952 109.608 60.0952C112.968 60.0952 113.688 62.0462 113.688 62.0462L116.088 60.583C116.04 60.583 115.8 63.0217 114.6 63.5095Z" fill="url(#paint2_linear)"/>
<path d="M115.353 62.4143L117.753 61.9265C117.753 61.9265 115.737 64.2189 115.353 64.3653C115.317 64.8523 115.317 65.3414 115.353 65.8285C110.745 85.9239 93.7527 77.0468 93.7527 77.0468C99.9447 77.1931 100.473 74.608 100.473 74.608C96.8727 74.0715 96.1527 71.6815 96.1527 71.6815C96.4756 71.8547 96.8501 71.9006 97.2044 71.8106C97.5587 71.7206 97.8678 71.501 98.0727 71.1938C94.1847 70.1695 94.7127 66.3163 94.7127 66.3163C95.4056 66.8247 96.2155 67.1438 97.0647 67.243C96.6327 66.7065 92.9847 62.2679 95.1927 59.9755C95.1927 59.9755 97.8806 64.853 104.937 65.292L105.417 65.1944C105.335 64.8431 105.303 64.4819 105.321 64.1214C105.321 62.7631 105.852 61.4605 106.797 60.5C107.742 59.5396 109.024 59 110.361 59C113.721 59 114.441 60.951 114.441 60.951L116.841 59.4878C116.793 59.4878 116.553 61.9265 115.353 62.4143Z" fill="#00ACED"/>
<path d="M196.753 58.8414L199.352 50.3401C199.352 50.3401 199.395 48.4279 197.593 48.022C195.79 47.6161 195.117 47.7108 194.021 48.3963L191.289 57.3171L186.736 56.0543L190.848 42.6326L195.401 43.8954L194.79 45.8888C194.79 45.8888 197.161 43.5346 200.126 44.5944C202.895 45.5505 204.484 47.774 203.868 51.409L203.958 51.4361L201.302 60.0952L196.753 58.8414ZM185.925 39.3989C185.384 39.2491 184.903 38.9502 184.541 38.5402C184.18 38.1302 183.954 37.6273 183.893 37.0953C183.832 36.5633 183.938 36.026 184.198 35.5513C184.458 35.0766 184.86 34.6859 185.353 34.4286C185.847 34.1712 186.409 34.0588 186.97 34.1056C187.531 34.1523 188.064 34.3561 188.503 34.6911C188.942 35.0262 189.267 35.4775 189.436 35.988C189.605 36.4984 189.611 37.0451 189.454 37.5589C189.349 37.9 189.175 38.2182 188.941 38.4953C188.707 38.7724 188.418 39.003 188.09 39.1738C187.762 39.3447 187.402 39.4525 187.031 39.4912C186.659 39.5298 186.284 39.4984 185.925 39.3989V39.3989ZM183.553 55.1839L179 53.9211L183.112 40.4994L187.666 41.7622L183.553 55.1839Z" fill="url(#paint3_linear)"/>
<path d="M197.506 57.7462L200.105 49.2449C200.105 49.2449 200.148 47.3327 198.345 46.9268C196.543 46.5209 195.869 46.6156 194.774 47.3011L192.042 56.2219L187.489 54.9591L191.601 41.5374L196.154 42.8002L195.542 44.7936C195.542 44.7936 197.914 42.4394 200.878 43.4992C203.648 44.4553 205.237 46.6787 204.62 50.3138L204.711 50.3408L202.054 59L197.506 57.7462ZM186.677 38.3037C186.137 38.1539 185.656 37.855 185.294 37.445C184.932 37.0349 184.707 36.5321 184.645 36.0001C184.584 35.4681 184.69 34.9307 184.95 34.4561C185.21 33.9814 185.612 33.5907 186.106 33.3333C186.599 33.076 187.162 32.9636 187.723 33.0103C188.284 33.0571 188.817 33.2609 189.256 33.5959C189.695 33.931 190.019 34.3823 190.189 34.8927C190.358 35.4032 190.364 35.9499 190.206 36.4637C190.102 36.8048 189.927 37.123 189.693 37.4001C189.459 37.6772 189.17 37.9078 188.843 38.0786C188.515 38.2495 188.155 38.3573 187.784 38.3959C187.412 38.4346 187.036 38.4032 186.677 38.3037V38.3037ZM184.306 54.0886L179.753 52.8258L183.865 39.4042L188.418 40.667L184.306 54.0886Z" fill="#0077B5"/>
</g>
<path d="M395.302 8.39735C394.888 10.3324 394.587 12.9612 390.41 13.8739C390.41 13.8739 387.963 14.4946 387.173 12.7786C386.684 14.6407 386.195 16.3567 385.894 16.7948C385.328 17.6877 384.699 18.5416 384.012 19.3505C384.012 19.3505 384.351 16.0646 384.388 15.3344C384.426 14.2025 385.517 9.12756 385.517 9.12756C385.517 9.12756 384.501 5.54952 387.023 5.11139C387.023 5.11139 389.092 4.63675 388.528 7.30203C388.528 7.30203 388.114 9.05454 387.587 11.0626L387.775 11.3182C387.922 11.6011 388.134 11.8472 388.395 12.0372C388.657 12.2272 388.96 12.356 389.281 12.4135C390.297 12.5231 392.969 10.7705 393.044 7.66713C393.119 4.56373 392.442 3.68747 389.657 2.92075C386.872 2.15402 384.501 3.46841 383.636 5.8416C382.657 8.54339 383.448 9.20058 384.012 9.85777L383.636 11.6833C383.636 11.6833 380.926 10.807 381.002 8.03224C381.077 5.25743 382.695 1.09521 388.528 1.09521C394.361 1.09521 395.716 6.42577 395.302 8.39735Z" fill="url(#paint4_linear)"/>
<path d="M396.054 7.30214C395.64 9.2372 395.339 11.866 391.162 12.7787C391.162 12.7787 388.716 13.3994 387.926 11.6834C387.437 13.5455 386.947 15.2615 386.646 15.6996C386.08 16.5925 385.452 17.4464 384.765 18.2553C384.765 18.2553 385.103 14.9694 385.141 14.2392C385.179 13.1073 386.27 8.03235 386.27 8.03235C386.27 8.03235 385.254 4.4543 387.775 4.01617C387.775 4.01617 389.845 3.54154 389.281 6.20681C389.281 6.20681 388.867 7.95933 388.34 9.96742L388.528 10.223C388.675 10.5059 388.887 10.752 389.148 10.942C389.409 11.132 389.712 11.2608 390.033 11.3183C391.049 11.4278 393.721 9.67533 393.796 6.57192C393.872 3.46851 393.194 2.59226 390.41 1.82553C387.625 1.05881 385.254 2.37319 384.388 4.74639C383.41 7.44818 384.2 8.10537 384.765 8.76256L384.388 10.5881C384.388 10.5881 381.679 9.71184 381.754 6.93703C381.829 4.16222 383.448 0 389.281 0C395.114 0 396.468 5.33056 396.054 7.30214Z" fill="#BD081C"/>
<path d="M285.499 20.4903H283.053V22.8635C283.049 23.0076 282.988 23.1447 282.883 23.2466C282.778 23.3486 282.637 23.4074 282.488 23.4111H282.112C281.964 23.4074 281.822 23.3486 281.717 23.2466C281.612 23.1447 281.551 23.0076 281.548 22.8635V20.4903H279.101C278.953 20.4866 278.812 20.4277 278.707 20.3258C278.601 20.2239 278.541 20.0867 278.537 19.9426V19.5775C278.541 19.4334 278.601 19.2963 278.707 19.1944C278.812 19.0924 278.953 19.0335 279.101 19.0299H281.548V16.6567C281.551 16.5126 281.612 16.3754 281.717 16.2735C281.822 16.1716 281.964 16.1127 282.112 16.109H282.488C282.637 16.1127 282.778 16.1716 282.883 16.2735C282.988 16.3754 283.049 16.5126 283.053 16.6567V19.0299H285.499C285.647 19.0335 285.789 19.0924 285.894 19.1944C285.999 19.2963 286.06 19.4334 286.063 19.5775V19.9426C286.06 20.0867 285.999 20.2239 285.894 20.3258C285.789 20.4277 285.647 20.4866 285.499 20.4903V20.4903ZM276.994 14.0681C277.504 14.7053 277.782 15.4885 277.784 16.2952C277.764 17.0597 277.509 17.801 277.054 18.425C276.598 19.0491 275.962 19.5277 275.225 19.8002C275.338 20.1653 275.715 20.567 276.655 21.2241C278.462 22.502 278.537 24.8752 278.537 24.8752V25.0578C278.537 26.9563 276.166 28.5263 273.268 28.5263C270.371 28.5263 268 26.9563 268 25.0578C268 23.2322 270.145 21.7353 272.892 21.5893V20.0923C270.785 19.8367 269.129 18.2303 269.129 16.2952C269.129 14.1776 271.048 12.4616 273.457 12.4616H273.645C273.645 12.4616 277.973 12.133 278.537 12.0965C279.101 12.06 278.913 12.8267 278.913 12.8267L276.994 14.0681ZM270.634 24.8716C270.634 26.0764 271.914 27.0622 273.457 27.0622C275 27.0622 276.279 26.0764 276.279 24.8716C276.279 23.6667 275 22.6809 273.457 22.6809C271.914 22.6809 270.634 23.6667 270.634 24.8716ZM275.225 15.9264C274.924 14.539 273.871 13.5533 272.892 13.7358C271.914 13.9184 271.387 15.2327 271.688 16.6202C271.989 18.0076 273.043 18.9933 274.021 18.8108C275 18.6282 275.526 17.354 275.225 15.9264Z" fill="url(#paint5_linear)"/>
<path d="M286.252 19.3951H283.805V21.7683C283.802 21.9123 283.741 22.0495 283.636 22.1514C283.531 22.2533 283.39 22.3122 283.241 22.3159H282.865C282.716 22.3122 282.575 22.2533 282.47 22.1514C282.365 22.0495 282.304 21.9123 282.3 21.7683V19.3951H279.854C279.706 19.3914 279.564 19.3325 279.459 19.2306C279.354 19.1287 279.293 18.9915 279.29 18.8474V18.4823C279.293 18.3382 279.354 18.2011 279.459 18.0991C279.564 17.9972 279.706 17.9383 279.854 17.9346H282.3V15.5614C282.304 15.4174 282.365 15.2802 282.47 15.1783C282.575 15.0764 282.716 15.0175 282.865 15.0138H283.241C283.39 15.0175 283.531 15.0764 283.636 15.1783C283.741 15.2802 283.802 15.4174 283.805 15.5614V17.9346H286.252C286.4 17.9383 286.541 17.9972 286.646 18.0991C286.752 18.2011 286.812 18.3382 286.816 18.4823V18.8474C286.812 18.9915 286.752 19.1287 286.646 19.2306C286.541 19.3325 286.4 19.3914 286.252 19.3951ZM277.747 12.9728C278.257 13.6101 278.534 14.3933 278.537 15.2C278.516 15.9645 278.262 16.7058 277.807 17.3298C277.351 17.9539 276.714 18.4325 275.978 18.705C276.091 19.0701 276.467 19.4717 277.408 20.1289C279.214 21.4068 279.29 23.78 279.29 23.78V23.9626C279.29 25.8611 276.919 27.4311 274.021 27.4311C271.123 27.4311 268.753 25.8611 268.753 23.9626C268.753 22.137 270.898 20.6401 273.645 20.494V18.9971C271.537 18.7415 269.882 17.1351 269.882 15.2C269.882 13.0824 271.801 11.3664 274.209 11.3664H274.397C274.397 11.3664 278.725 11.0378 279.29 11.0013C279.854 10.9648 279.666 11.7315 279.666 11.7315L277.747 12.9728ZM271.387 23.7763C271.387 24.9812 272.666 25.967 274.209 25.967C275.752 25.967 277.032 24.9812 277.032 23.7763C277.032 22.5715 275.752 21.5857 274.209 21.5857C272.666 21.5857 271.387 22.5715 271.387 23.7763ZM275.978 14.8312C275.677 13.4438 274.623 12.458 273.645 12.6406C272.666 12.8231 272.14 14.1375 272.441 15.5249C272.742 16.9123 273.795 17.8981 274.774 17.7156C275.752 17.533 276.279 16.2588 275.978 14.8312Z" fill="#D34836"/>
</g>
<defs>
<filter id="filter0_d" x="0" y="0" width="490" height="337.282" filterUnits="userSpaceOnUse" color-interpolation-filters="sRGB">
<feFlood flood-opacity="0" result="BackgroundImageFix"/>
<feColorMatrix in="SourceAlpha" type="matrix" values="0 0 0 0 0 0 0 0 0 0 0 0 0 0 0 0 0 0 127 0"/>
<feOffset dy="4"/>
<feGaussianBlur stdDeviation="2"/>
<feColorMatrix type="matrix" values="0 0 0 0 0 0 0 0 0 0 0 0 0 0 0 0 0 0 0.25 0"/>
<feBlend mode="normal" in2="BackgroundImageFix" result="effect1_dropShadow"/>
<feBlend mode="normal" in="SourceGraphic" in2="effect1_dropShadow" result="shape"/>
</filter>
<linearGradient id="paint0_linear" x1="399.366" y1="98.7792" x2="29.3543" y2="303.086" gradientUnits="userSpaceOnUse">
<stop stop-color="#837BFF"/>
<stop offset="1" stop-color="#9C00C2"/>
</linearGradient>
<linearGradient id="paint1_linear" x1="31.3236" y1="106.07" x2="31.3236" y2="87.0733" gradientUnits="userSpaceOnUse">
<stop stop-color="#808080" stop-opacity="0.25"/>
<stop offset="0.54" stop-color="#808080" stop-opacity="0.12"/>
<stop offset="1" stop-color="#808080" stop-opacity="0.1"/>
</linearGradient>
<linearGradient id="paint2_linear" x1="10197" y1="3752.1" x2="10197" y2="2931.9" gradientUnits="userSpaceOnUse">
<stop stop-color="#808080" stop-opacity="0.25"/>
<stop offset="0.54" stop-color="#808080" stop-opacity="0.12"/>
<stop offset="1" stop-color="#808080" stop-opacity="0.1"/>
</linearGradient>
<linearGradient id="paint3_linear" x1="19672.8" y1="5069" x2="19672.8" y2="3569.58" gradientUnits="userSpaceOnUse">
<stop stop-color="#808080" stop-opacity="0.25"/>
<stop offset="0.54" stop-color="#808080" stop-opacity="0.12"/>
<stop offset="1" stop-color="#808080" stop-opacity="0.1"/>
</linearGradient>
<linearGradient id="paint4_linear" x1="14106.2" y1="4712.61" x2="14106.2" y2="3799.85" gradientUnits="userSpaceOnUse">
<stop stop-color="#808080" stop-opacity="0.25"/>
<stop offset="0.54" stop-color="#808080" stop-opacity="0.12"/>
<stop offset="1" stop-color="#808080" stop-opacity="0.1"/>
</linearGradient>
<linearGradient id="paint5_linear" x1="10491.9" y1="2379.65" x2="11358.9" y2="2379.65" gradientUnits="userSpaceOnUse">
<stop stop-color="#808080" stop-opacity="0.25"/>
<stop offset="0.54" stop-color="#808080" stop-opacity="0.12"/>
<stop offset="1" stop-color="#808080" stop-opacity="0.1"/>
</linearGradient>
<clipPath id="clip0">
<rect x="4" y="34" width="482" height="246" fill="white"/>
</clipPath>
</defs>
</svg>
