<svg width="188" height="121" viewBox="0 0 188 121" fill="none" xmlns="http://www.w3.org/2000/svg">
<path d="M0.500016 0.84383C0.500017 3.00003 0.500016 41.0496 0.500016 41.0496C0.500016 67.8434 0.500016 48.3434 0.500016 67.8434C0.500016 77.8434 0.500016 75.3434 0.500016 92.2783C0.500016 97.3434 0.500016 85.3434 0.500016 100.343C0.500016 110.843 0.500016 57.8434 0.500016 67.8434C0.500016 79.8434 0.500016 65.3434 0.500016 100.343C0.500016 107.843 0.500016 88.3434 0.500016 94.8434C0.500016 105.343 0.500016 96.3434 0.500016 104.343C0.500016 107.843 0.500016 92.2783 0.500008 107.343C0.500016 76.7007 0.500016 67.8434 0.500002 75.2007C0.500012 84.7007 0.499994 91.7007 0.500002 87.7007C0.500011 83.7007 0.500007 120.701 0.500002 118C0.500002 118 3.72416 115.875 13.7019 118C37.2452 122.986 62.4423 121.165 84.8455 112.861C119.211 100.119 145.404 73.3631 179.019 59.007C165.636 66.9587 189.5 52.7131 179.019 59.007C186.558 54.4796 178 60.3777 187.225 53C187.225 41.3488 189.725 42.5 176.225 32.5C162.225 25.0328 157.129 17.877 143.225 9.20074C160.161 14.7761 125.904 3.02052 143.225 9.20074C160.546 15.381 125.737 3.44113 143.225 9.20074C129.209 4.21378 100.217 0.573064 84.8455 0.843476C69.4743 1.11389 84.8455 0.843476 49 0.843476C23 0.843704 36.225 0.843475 13.7019 0.843704C-0.774994 0.843476 21.225 0.843601 0.500016 0.84383Z" fill="url(#paint0_linear)"/>
<defs>
<linearGradient id="paint0_linear" x1="207.905" y1="-63.2939" x2="-126.235" y2="124.382" gradientUnits="userSpaceOnUse">
<stop stop-color="#837BFF"/>
<stop offset="1" stop-color="#9C00C2"/>
</linearGradient>
</defs>
</svg>
